<?xml version="1.0" encoding="UTF-8"?>
<svg id="Capa_1" data-name="Capa 1" xmlns="http://www.w3.org/2000/svg" viewBox="0 0 713.06 735.49">
  <defs>
    <style>
      .cls-1 {
        fill: #fcb415;
      }

      .cls-1, .cls-2 {
        stroke-width: 0px;
      }

      .cls-3 {
        fill: none;
        stroke: #000;
        stroke-linecap: round;
        stroke-miterlimit: 10;
        stroke-width: 30px;
      }

      .cls-2 {
        fill: #000;
      }
    </style>
  </defs>
  <g>
    <path class="cls-2" d="M706,213.03c-10.43-20.48-31.49-34.03-57.78-37.14l-174.13-2.37L376.29,30.06l-1.42-1.85C356.69,7.22,333.22-2.81,310.47.68s-40.4,18.38-52.23,42.26l-62.95,173.39-149.19,50.34-2.03.82c-23.88,11.27-39.65,30.84-43.28,53.7-3.62,22.84,5.23,46.93,24.29,66.06l133.4,104.98,7.03,177.65.14,1.61c2.67,22.8,11.68,40.89,26.04,52.28,20.44,16.22,49.67,15.65,76.01-2.03l138.85-109.45,163.92,62.22,1.38.48c12.27,3.6,23.95,4.59,34.76,2.93,16-2.46,29.61-10.93,38.35-23.82,10.27-15.18,13.45-35.15,9.15-57.69l-47.02-173.13,94.46-138.11,1.25-2.09c12.46-24.02,13.64-49.57,3.21-70.06ZM668.95,262.56l-104.44,152.67,51.49,189.33c1.97,10.98.89,20.18-3.03,25.99-5.15,7.63-16.44,9.6-30.22,5.69l-183.21-69.55-153.87,121.36c-12.01,7.87-23.36,9.35-30.52,3.68-5.51-4.38-9.29-12.84-10.72-23.91l-7.74-196.06-145.45-114.25c-9.21-9.57-13.44-19.93-11.96-29.29,1.5-9.38,8.72-17.68,20.4-23.42l165.63-55.91,68.18-188.12c12.21-23.69,33.97-26.49,51.8-6.56l108.74,159.48,191.16,2.48c12.86,1.72,22.21,7.17,26.42,15.41,4.17,8.19,3.22,19.15-2.64,30.96Z"/>
    <path class="cls-1" d="M668.95,262.56l-104.44,152.67,51.49,189.33c1.97,10.98.89,20.18-3.03,25.99-5.15,7.63-16.44,9.6-30.22,5.69l-183.21-69.55-153.87,121.36c-12.01,7.87-23.36,9.35-30.52,3.68-5.51-4.38-9.29-12.84-10.72-23.91l-7.74-196.06-145.45-114.25c-9.21-9.57-13.44-19.93-11.96-29.29,1.5-9.38,8.72-17.68,20.4-23.42l165.63-55.91,68.18-188.12c12.21-23.69,33.97-26.49,51.8-6.56l108.74,159.48,191.16,2.48c12.86,1.72,22.21,7.17,26.42,15.41,4.17,8.19,3.22,19.15-2.64,30.96Z"/>
  </g>
  <ellipse class="cls-2" cx="454.74" cy="371.95" rx="38.57" ry="73.48" transform="translate(-51.23 73.41) rotate(-8.74)"/>
  <ellipse class="cls-2" cx="288.32" cy="397.53" rx="38.57" ry="73.48" transform="translate(-57.05 48.42) rotate(-8.74)"/>
  <path class="cls-3" d="M234.6,307.7c3.6-1.9,9.03-4.31,15.94-5.7,9.72-1.94,17.32-.82,21.23-.37,9.06,1.04,22.36,1.25,40.47-2.67"/>
  <path class="cls-3" d="M398.64,258.21c13.46-24.56,37.8-35.93,56.24-29.83,11.71,3.87,18.3,13.89,21.11,18.99"/>
</svg>