<?xml version="1.0" encoding="UTF-8"?>
<svg id="Layer_1" data-name="Layer 1" xmlns="http://www.w3.org/2000/svg" viewBox="0 0 2412.83 765.49">
  <defs>
    <style>
      .cls-1 {
        fill: #fcb415;
      }

      .cls-1, .cls-2, .cls-3 {
        stroke-width: 0px;
      }

      .cls-4 {
        fill: none;
        stroke: #000;
        stroke-linecap: round;
        stroke-miterlimit: 10;
        stroke-width: 30px;
      }

      .cls-2 {
        fill: #000;
      }

      .cls-3 {
        fill: #fff;
      }
    </style>
  </defs>
  <g>
    <path class="cls-2" d="M240.97,757.99c-14.48,0-27.94-4.61-38.94-13.34-15.96-12.66-25.93-32.47-28.83-57.29l-.18-2.01-6.9-174.36-131.03-103.12-.32-.32c-20.77-20.83-30.38-47.27-26.39-72.52,4.02-25.35,21.32-46.96,47.48-59.31l.19-.09,2.43-.99,145.99-49.26,61.87-170.39.19-.38c12.94-26.15,33.47-42.61,57.81-46.35,3.33-.51,6.72-.77,10.09-.77,22.21,0,43.91,10.94,61.11,30.8l.15.17,1.69,2.2,95.74,140.41,170.62,2.32.39.05c28.81,3.41,51.98,18.43,63.58,41.19,11.54,22.68,10.36,50.71-3.24,76.92l-.1.2-1.49,2.49-92.63,135.44,46.19,170.06.05.28c4.68,24.54,1.12,46.42-10.3,63.3-9.93,14.65-25.35,24.25-43.42,27.03-3.75.58-7.65.87-11.58.87-8.47,0-17.36-1.35-26.43-4.01l-.18-.05-1.74-.61-159.95-60.71-135.74,107-.24.16c-14.64,9.83-30.52,15.02-45.91,15.02ZM226.9,682.19c1.19,8.82,4.06,15.62,7.91,18.67,1.52,1.2,3.44,1.79,5.86,1.79,4.39,0,9.92-2.02,15.61-5.7l156.94-123.78,186.87,70.94c3.8,1.05,7.33,1.59,10.51,1.59,3.75,0,8.72-.75,11.15-4.34,2.75-4.07,3.44-11.4,1.92-20.15l-52.31-192.35,106.1-155.09c4.58-9.44,5.46-17.87,2.45-23.76-3-5.87-10.2-9.88-20.3-11.32l-194.59-2.53-110.65-162.29c-6.21-6.81-12.81-10.41-19.12-10.41-7.62,0-14.67,5.45-19.88,15.35l-69.24,191.05-168.57,56.9c-9.16,4.61-14.79,10.86-15.87,17.66-1.08,6.84,2.33,14.84,9.61,22.54l147.75,116.06,7.87,199.18Z"/>
    <path class="cls-3" d="M334.43,15c19.84,0,39.64,9.97,55.44,28.21l1.42,1.85,97.81,143.46,174.13,2.37c26.29,3.11,47.35,16.67,57.78,37.14,10.42,20.49,9.25,46.03-3.21,70.06l-1.25,2.09-94.46,138.11,47.02,173.13c4.3,22.55,1.13,42.51-9.15,57.69-8.73,12.89-22.35,21.36-38.35,23.82-3.4.52-6.88.78-10.44.78-7.77,0-15.91-1.24-24.32-3.71l-1.38-.48-163.92-62.22-138.85,109.45c-13.68,9.18-28.13,13.75-41.73,13.75-12.59,0-24.45-3.92-34.28-11.72-14.36-11.39-23.37-29.49-26.04-52.28l-.14-1.61-7.03-177.65-133.4-104.98c-19.06-19.12-27.91-43.21-24.29-66.06,3.62-22.86,19.39-42.43,43.28-53.7l2.03-.82,149.19-50.34,62.95-173.39c11.82-23.88,30.36-38.9,52.23-42.26,2.98-.46,5.96-.68,8.95-.68M240.67,710.16c5.93,0,12.85-2.42,19.99-7.1l153.87-121.36,183.21,69.55c4.61,1.31,8.94,1.96,12.86,1.96,7.79,0,13.93-2.57,17.36-7.64,3.92-5.81,5-15.01,3.03-25.99l-51.49-189.33,104.44-152.67c5.86-11.8,6.81-22.77,2.64-30.96-4.21-8.24-13.55-13.68-26.42-15.41l-191.16-2.48-108.74-159.48c-7.96-8.9-16.7-13.27-25.03-13.26-10.32,0-20.01,6.71-26.76,19.83l-68.18,188.12-165.63,55.91c-11.68,5.74-18.9,14.03-20.4,23.42-1.48,9.36,2.75,19.72,11.96,29.29l145.45,114.25,7.74,196.06c1.43,11.06,5.21,19.53,10.72,23.91,2.9,2.3,6.49,3.42,10.53,3.42M334.43,0c-3.75,0-7.53.29-11.23.86-26.82,4.12-49.33,22.03-63.39,50.43l-.37.75-.29.79-60.49,166.61-142.35,48.03-.42.14-.42.17-2.03.82-.39.16-.38.18c-28.44,13.42-47.28,37.08-51.69,64.92-4.38,27.65,6,56.44,28.48,78.99l.64.64.71.56,127.96,100.7,6.75,170.73v.34s.04.34.04.34l.14,1.61.02.23.03.23c3.14,26.83,14.07,48.37,31.62,62.29,12.34,9.79,27.42,14.97,43.6,14.97s34.21-5.63,50.09-16.29l.48-.32.45-.36,132.18-104.19,155.98,59.2.19.07.19.07,1.38.48.35.12.36.11c9.76,2.87,19.36,4.32,28.55,4.32,4.31,0,8.59-.32,12.72-.96,20.16-3.1,37.38-13.84,48.49-30.23,12.56-18.56,16.53-42.39,11.46-68.92l-.11-.56-.15-.55-45.21-166.44,90.55-132.39.26-.38.23-.39,1.25-2.09.23-.39.21-.4c14.72-28.38,15.91-58.91,3.27-83.77-12.75-25.04-38.04-41.52-69.38-45.24l-.78-.09h-.78s-166.33-2.27-166.33-2.27l-93.42-137.01-.24-.35-.26-.33-1.42-1.85-.27-.35-.29-.33C382.57,11.86,358.85,0,334.43,0h0ZM322.23,81.88c2.08-3.81,6.79-10.92,13.02-10.92,3.98,0,8.66,2.69,13.23,7.59l108.15,158.61,4.4,6.45,7.8.1,190.19,2.47c7.17,1.1,12.46,3.78,14.22,7.24,1.81,3.55.95,9.71-2.29,16.59l-103.81,151.75-3.91,5.72,1.82,6.69,51.3,188.66c1.39,8.29.16,12.9-.8,14.34-.11.17-1.44,1.04-4.93,1.04-2.38,0-5.2-.42-8.18-1.23l-182.57-69.3-7.94-3.01-6.67,5.26-153.31,120.92c-6.28,4-10.19,4.32-11.25,4.32-.81,0-1.17-.14-1.22-.18-1.34-1.06-3.9-5.1-5.08-13.45l-7.72-195.35-.27-6.92-5.45-4.28-144.57-113.56c-5.32-5.76-7.97-11.5-7.28-15.83.67-4.17,4.8-8.48,11.38-11.89l164.63-55.57,6.84-2.31,2.46-6.79,67.83-187.14h0Z"/>
  </g>
  <path class="cls-1" d="M683.95,277.56l-104.44,152.67,51.49,189.33c1.97,10.98.89,20.18-3.03,25.99-5.15,7.63-16.44,9.6-30.22,5.69l-183.21-69.55-153.87,121.36c-12.01,7.87-23.36,9.35-30.52,3.68-5.51-4.38-9.29-12.84-10.72-23.91l-7.74-196.06-145.45-114.25c-9.21-9.57-13.44-19.93-11.96-29.29,1.5-9.38,8.72-17.68,20.4-23.42l165.63-55.91,68.18-188.12c12.21-23.69,33.97-26.49,51.8-6.56l108.74,159.48,191.16,2.48c12.86,1.72,22.21,7.17,26.42,15.41,4.17,8.19,3.22,19.15-2.64,30.96Z"/>
  <ellipse class="cls-2" cx="469.74" cy="386.95" rx="38.57" ry="73.48" transform="translate(-53.34 75.86) rotate(-8.74)"/>
  <ellipse class="cls-2" cx="303.32" cy="412.53" rx="38.57" ry="73.48" transform="translate(-59.15 50.87) rotate(-8.74)"/>
  <path class="cls-4" d="M249.6,322.7c3.6-1.9,9.03-4.31,15.94-5.7,9.72-1.94,17.32-.82,21.23-.37,9.06,1.04,22.36,1.25,40.47-2.67"/>
  <path class="cls-4" d="M413.65,273.21c13.46-24.56,37.8-35.93,56.24-29.83,11.71,3.87,18.3,13.89,21.11,18.99"/>
  <g>
    <g>
      <path class="cls-2" d="M1022.34,550.26c-10.36,0-19.12-2.38-26.05-7.09-6.41-4.35-11.88-10.18-16.25-17.3-3.6-5.87-6.86-11.3-9.7-16.16l-64.28-98.89-37.35,35.81v57.02c0,14.99-3.78,26.58-11.22,34.47-7.6,8.05-17.4,12.14-29.11,12.14-6.86,0-13.5-1.8-19.73-5.36-6.3-3.6-11.24-8.55-14.69-14.73l-.11-.2-.1-.2c-2.46-4.9-3.96-10.56-4.46-16.82-.43-5.3-.64-12.65-.64-22.45v-220.46c0-14.58,3.52-25.99,10.48-33.9,7.28-8.3,17.12-12.5,29.26-12.5s21.72,4.1,29.26,12.18c7.35,7.89,11.08,19.41,11.08,34.23v79.08l100.7-105.02c6.15-6.44,11.35-11.15,15.88-14.37,5.68-4.05,12.98-6.1,21.68-6.1,11.23,0,20.59,3.48,27.82,10.33,7.27,6.9,11.1,15.81,11.1,25.76,0,11.56-5.6,22.77-16.64,33.32l-66.79,63.28,79.21,113.48c6.29,8.87,10.94,16.54,14.19,23.39,3.59,7.59,5.41,15.19,5.41,22.58,0,9.32-3.79,17.79-10.96,24.5-7.08,6.62-16.49,9.98-27.97,9.98Z"/>
      <path class="cls-3" d="M1006.97,233.64c8.63,0,15.6,2.53,20.93,7.59,5.32,5.06,7.99,11.22,7.99,18.51,0,8.77-4.52,17.46-13.55,26.09l-73.01,69.17,84.14,120.54c5.93,8.36,10.38,15.67,13.35,21.95,2.96,6.27,4.45,12.37,4.45,18.3,0,6.61-2.6,12.34-7.79,17.19-5.19,4.85-12.24,7.28-21.14,7.28-8.36,0-15.17-1.79-20.43-5.36-5.26-3.57-9.71-8.32-13.35-14.26-3.64-5.93-6.88-11.33-9.71-16.18l-70.99-109.22-49.15,47.13v61.28c0,12.41-2.83,21.61-8.5,27.61-5.66,6-12.94,9-21.84,9-5.13,0-10.05-1.35-14.76-4.04-4.72-2.7-8.36-6.34-10.92-10.92-1.89-3.77-3.03-8.16-3.44-13.15-.4-4.99-.61-12.2-.61-21.64v-220.46c0-12.14,2.66-21.24,7.99-27.3,5.32-6.07,12.57-9.1,21.74-9.1s16.35,3,21.94,9c5.59,6,8.39,15.14,8.39,27.41v103.96l117.91-122.97c5.66-5.93,10.48-10.31,14.46-13.15,3.98-2.83,9.27-4.25,15.88-4.25M1006.97,213.64c-10.82,0-20.07,2.68-27.48,7.96-5.05,3.6-10.72,8.71-17.33,15.63l-83.45,87.03v-54.2c0-17.43-4.63-31.24-13.76-41.04-9.38-10.05-22.03-15.36-36.58-15.36s-27.64,5.5-36.77,15.91c-8.6,9.79-12.96,23.41-12.96,40.5v220.46c0,10.07.22,17.68.67,23.26.61,7.54,2.46,14.43,5.49,20.49l.2.4.22.39c4.35,7.79,10.56,14.02,18.47,18.54,7.76,4.43,16.06,6.68,24.68,6.68,14.37,0,26.95-5.28,36.39-15.27,9.26-9.81,13.95-23.71,13.95-41.34v-52.75l25.55-24.5,57.56,88.56c2.84,4.86,6.1,10.29,9.69,16.14,5.12,8.34,11.56,15.19,19.16,20.34,8.61,5.85,19.26,8.81,31.66,8.81,14.09,0,25.8-4.26,34.79-12.67,9.25-8.65,14.13-19.64,14.13-31.8,0-8.88-2.14-17.91-6.37-26.85-3.49-7.38-8.42-15.52-15.07-24.9l-74.24-106.37,60.51-57.33.03-.03.03-.03c13.1-12.51,19.74-26.15,19.74-40.55,0-12.76-4.92-24.18-14.22-33.01-9.02-8.56-21.02-13.08-34.7-13.08h0Z"/>
    </g>
    <g>
      <path class="cls-2" d="M1360.31,550.26c-10.71,0-20.06-4.08-27.04-11.79-6.81-7.53-10.27-18.36-10.27-32.19v-123.96l-27.83,110.62c-3.2,12.65-5.75,21.73-7.82,27.79-2.5,7.34-7.08,14.04-13.61,19.89-7.13,6.39-16.72,9.64-28.52,9.64-8.88,0-16.65-2.04-23.1-6.07-6.25-3.91-11.2-9.01-14.71-15.15-3.11-5.43-5.58-11.5-7.34-18.03-1.55-5.73-3.16-11.78-4.77-17.99l-27.85-110.7v123.96c0,13.8-3.41,24.62-10.12,32.14-6.91,7.74-16.45,11.83-27.58,11.83s-20.22-4.03-27.2-11.64c-6.84-7.47-10.31-18.35-10.31-32.34v-234.62c0-16.43,4.89-28.03,14.55-34.5,8.39-5.62,19.45-8.47,32.87-8.47h18.61c12.59,0,21.78,1.23,28.09,3.75,7.49,2.99,13.07,8.38,16.59,16.02,2.69,5.84,5.6,14.78,8.89,27.35l33.41,125.94,33.41-125.97c3.28-12.53,6.18-21.47,8.88-27.31,3.52-7.63,9.11-13.02,16.59-16.02,6.31-2.52,15.49-3.75,28.09-3.75h18.61c13.42,0,24.48,2.85,32.87,8.47,9.66,6.47,14.55,18.08,14.55,34.5v234.62c0,13.8-3.41,24.62-10.13,32.14-6.91,7.74-16.52,11.83-27.79,11.83Z"/>
      <path class="cls-3" d="M1350.81,238.69c11.46,0,20.56,2.26,27.3,6.78,6.74,4.52,10.11,13.25,10.11,26.19v234.62c0,11.33-2.53,19.82-7.59,25.48-5.06,5.66-11.83,8.5-20.33,8.5-7.96,0-14.5-2.83-19.62-8.5-5.12-5.66-7.69-14.16-7.69-25.48v-204.68l-47.53,188.91c-3.1,12.27-5.63,21.27-7.58,27-1.96,5.73-5.56,10.96-10.82,15.67-5.26,4.72-12.54,7.08-21.84,7.08-7.01,0-12.94-1.52-17.8-4.55-4.85-3.03-8.63-6.91-11.33-11.63-2.7-4.72-4.82-9.94-6.37-15.67-1.55-5.73-3.13-11.7-4.75-17.9l-47.53-188.91v204.68c0,11.33-2.53,19.82-7.58,25.48-5.06,5.66-11.77,8.5-20.12,8.5s-14.7-2.8-19.82-8.39c-5.13-5.59-7.69-14.12-7.69-25.59v-234.62c0-12.94,3.37-21.67,10.11-26.19,6.74-4.52,15.84-6.78,27.3-6.78h18.61c11.19,0,19.32,1.01,24.37,3.03,5.06,2.02,8.8,5.66,11.23,10.92,2.43,5.26,5.19,13.82,8.29,25.69l43.08,162.41,43.08-162.41c3.1-11.86,5.87-20.43,8.29-25.69,2.43-5.26,6.17-8.9,11.22-10.92,5.06-2.02,13.18-3.03,24.37-3.03h18.61M1350.81,218.69h-18.61c-14.08,0-24.19,1.42-31.8,4.46-9.8,3.92-17.39,11.22-21.96,21.11-2.95,6.38-6.05,15.86-9.48,28.98l-23.74,89.49-23.74-89.5c-3.43-13.12-6.53-22.6-9.47-28.97-4.57-9.89-12.16-17.19-21.96-21.11-7.61-3.04-17.72-4.46-31.8-4.46h-18.61c-15.44,0-28.38,3.42-38.44,10.16-6.84,4.58-11.92,11.09-15.11,19.35-2.6,6.74-3.87,14.42-3.87,23.46v234.62c0,16.57,4.35,29.73,12.94,39.1,8.91,9.73,20.87,14.88,34.57,14.88s26.18-5.25,35.04-15.17c8.4-9.41,12.67-22.47,12.67-38.81v-43.23l8.14,32.33.02.08.02.08c1.63,6.24,3.24,12.32,4.8,18.08,1.98,7.34,4.78,14.2,8.31,20.38,4.33,7.59,10.42,13.87,18.09,18.66,8.07,5.04,17.62,7.59,28.4,7.59,14.34,0,26.18-4.1,35.2-12.19,7.81-7.01,13.33-15.12,16.39-24.1,2.15-6.32,4.78-15.66,8.04-28.56l8.14-32.36v43.23c0,16.39,4.33,29.48,12.86,38.9,8.92,9.86,20.83,15.08,34.45,15.08s26.38-5.25,35.24-15.17c8.41-9.41,12.67-22.47,12.67-38.81v-234.62c0-9.04-1.27-16.71-3.87-23.46-3.19-8.25-8.27-14.76-15.1-19.34-10.07-6.75-23-10.16-38.44-10.16h0Z"/>
    </g>
    <g>
      <path class="cls-2" d="M1480.05,550.26c-11.95,0-21.79-4.21-29.27-12.51-7.21-7.99-10.86-19.33-10.86-33.69v-228.55c0-16.04,4.13-28.02,12.28-35.63,7.95-7.42,19.98-11.18,35.74-11.18h77.06c23.94,0,42.04,1.85,55.33,5.64,13.48,3.74,25.39,10.11,35.33,18.91,9.96,8.82,17.62,19.74,22.77,32.45,5.05,12.48,7.61,26.6,7.61,41.98,0,33.16-10.6,58.84-31.49,76.33-20.37,17.05-50.5,25.69-89.54,25.69h-45.01v73.94c0,14.52-3.74,25.97-11.11,34.05-7.61,8.33-17.31,12.56-28.82,12.56ZM1550.43,364.41c13.08,0,24.02-1.34,32.52-4,7.5-2.34,12.95-5.92,16.68-10.97,3.67-4.95,5.52-11.86,5.52-20.55,0-10.49-2.86-18.68-8.74-25.03-8.78-8.77-32.56-10.08-45.98-10.08h-30.45v70.61h30.45Z"/>
      <path class="cls-3" d="M1564.99,238.69c22.79,0,40.32,1.75,52.59,5.26,12.14,3.37,22.62,8.97,31.45,16.79,8.83,7.82,15.54,17.39,20.12,28.72,4.58,11.33,6.88,24.07,6.88,38.23,0,30.21-9.3,53.09-27.91,68.67-18.61,15.57-46.32,23.36-83.13,23.36h-55.01v83.94c0,12-2.83,21.1-8.49,27.3-5.66,6.2-12.81,9.3-21.44,9.3s-16.32-3.07-21.84-9.2c-5.53-6.13-8.29-15.13-8.29-27v-228.55c0-13.21,3.03-22.65,9.1-28.32,6.07-5.66,15.71-8.49,28.92-8.49h77.06M1509.98,374.41h40.45c14.16,0,25.99-1.48,35.5-4.45,9.51-2.96,16.75-7.82,21.74-14.56,4.99-6.74,7.48-15.57,7.48-26.5,0-13.08-3.84-23.73-11.53-31.96-8.63-8.76-26.36-13.15-53.19-13.15h-40.45v90.61M1564.99,218.69h-77.06c-18.38,0-32.7,4.67-42.57,13.87-10.26,9.57-15.46,24.02-15.46,42.94v228.55c0,16.91,4.52,30.5,13.44,40.39,9.32,10.34,22.01,15.81,36.7,15.81s26.75-5.47,36.21-15.81c9.11-9.98,13.73-23.7,13.73-40.79v-63.94h35.01c20.15,0,38.25-2.22,53.8-6.59,16.53-4.65,30.72-11.86,42.16-21.44,23.27-19.48,35.08-47.74,35.08-84,0-16.67-2.8-32.05-8.34-45.73-5.74-14.16-14.28-26.34-25.4-36.19-11.08-9.81-24.29-16.89-39.29-21.07-14.19-4.04-33.17-6.01-58-6.01h0ZM1529.98,303.8h20.45c29.69,0,37.58,5.92,38.82,7.06,2.61,2.87,5.9,7.85,5.9,18.04,0,6.49-1.2,11.4-3.56,14.6-2.42,3.28-6.22,5.68-11.62,7.37-7.53,2.35-17.47,3.54-29.54,3.54h-20.45v-50.61h0Z"/>
    </g>
    <g>
      <path class="cls-2" d="M1808.51,550.26c-38.1,0-68.34-11.23-89.89-33.36-21.47-22.06-32.36-52.1-32.36-89.29,0-17.36,2.64-33.75,7.84-48.69,5.29-15.21,13.15-28.48,23.37-39.43,10.29-11.04,23.09-19.6,38.05-25.45,14.73-5.76,31.19-8.68,48.95-8.68,23.28,0,43.67,5.06,60.6,15.04,16.97,10.01,29.9,23.2,38.43,39.21,8.43,15.82,12.7,32.24,12.7,48.79,0,17.86-5.83,29.94-17.34,35.89-9.48,4.9-21.96,7.29-38.17,7.29h-97.26c.97,6.85,2.89,13.07,5.73,18.6,4.08,7.95,9.26,13.71,15.84,17.62,6.64,3.95,13.8,5.88,21.89,5.88,5.66,0,10.83-.65,15.37-1.95,4.48-1.27,8.92-3.31,13.19-6.07,4.68-3.02,9.06-6.3,12.99-9.74,4.19-3.67,9.75-8.76,16.52-15.13l.17-.16.18-.15c4.68-4.01,10.95-6.05,18.64-6.05,8.15,0,15,2.41,20.38,7.16,3.94,3.49,8.63,9.9,8.63,20.64,0,6.86-2.37,14.24-7.24,22.55-4.54,7.75-11.33,15.17-20.19,22.05-8.73,6.79-19.72,12.46-32.66,16.85-12.91,4.38-27.84,6.6-44.37,6.6ZM1841.53,400.21c-1.99-11.11-5.76-19.66-11.27-25.52-6.92-7.34-15.95-10.91-27.61-10.91-10.95,0-19.64,3.62-26.55,11.06-5.53,5.96-9.48,14.46-11.78,25.36h77.21Z"/>
      <path class="cls-3" d="M1804.47,315.35c21.57,0,40.08,4.55,55.52,13.65,15.44,9.1,27,20.87,34.69,35.29,7.69,14.43,11.53,29.12,11.53,44.09,0,13.89-3.98,22.89-11.93,27-7.96,4.11-19.15,6.17-33.57,6.17h-108c.13,12.54,2.66,23.6,7.58,33.17,4.92,9.58,11.46,16.79,19.62,21.64,8.16,4.85,17.16,7.28,27,7.28,6.61,0,12.64-.77,18.1-2.33,5.46-1.55,10.75-3.98,15.88-7.28,5.12-3.3,9.84-6.84,14.16-10.62,4.31-3.77,9.91-8.9,16.79-15.37,2.83-2.43,6.88-3.64,12.13-3.64,5.66,0,10.25,1.55,13.75,4.65,3.5,3.1,5.26,7.48,5.26,13.15,0,4.99-1.96,10.82-5.87,17.5-3.91,6.67-9.81,13.08-17.7,19.21-7.89,6.14-17.8,11.22-29.73,15.27-11.93,4.05-25.65,6.07-41.16,6.07-35.46,0-63.04-10.11-82.72-30.34-19.69-20.23-29.53-47.66-29.53-82.32,0-16.31,2.43-31.45,7.28-45.41,4.85-13.96,11.93-25.92,21.24-35.9,9.3-9.98,20.76-17.63,34.38-22.96,13.62-5.32,28.72-7.99,45.31-7.99M1752.69,410.21h100.12c-1.35-18.88-6.44-33-15.27-42.37-8.83-9.37-20.46-14.06-34.89-14.06s-25.05,4.75-33.88,14.26c-8.83,9.51-14.19,23.56-16.08,42.17M1804.47,295.35c-19.01,0-36.7,3.15-52.59,9.36-16.37,6.4-30.41,15.8-41.73,27.94-11.17,11.98-19.75,26.44-25.5,42.97-5.57,16-8.39,33.49-8.39,51.98,0,39.89,11.84,72.28,35.2,96.27,23.5,24.14,56.15,36.39,97.05,36.39,17.62,0,33.63-2.4,47.58-7.13,14-4.75,25.97-10.94,35.59-18.42,9.86-7.67,17.49-16.04,22.67-24.89,5.79-9.89,8.61-18.92,8.61-27.61,0-14.46-6.53-23.27-12-28.12-1.25-1.1-2.56-2.11-3.93-3.03,9.44-6.21,19.17-18.48,19.17-42.67,0-18.21-4.67-36.21-13.88-53.5-9.41-17.66-23.6-32.16-42.18-43.12-18.49-10.9-40.59-16.42-65.68-16.42h0ZM1777.9,390.21c1.55-3.4,3.39-6.26,5.52-8.56,5.06-5.44,10.99-7.87,19.23-7.87,11.66,0,17.19,4.44,20.33,7.77,2.13,2.26,3.94,5.15,5.41,8.65h-50.49ZM1776.25,461.56h73.19c-2.89,2.65-5.42,4.93-7.58,6.81-3.57,3.12-7.55,6.11-11.83,8.86-3.44,2.22-6.97,3.85-10.5,4.85-3.66,1.04-7.91,1.57-12.65,1.57-6.23,0-11.72-1.46-16.77-4.47-4.92-2.92-8.86-7.37-12.06-13.59-.66-1.29-1.27-2.64-1.81-4.03h0Z"/>
    </g>
    <g>
      <path class="cls-2" d="M2054.66,550.26c-38.1,0-68.34-11.23-89.89-33.36-21.47-22.06-32.36-52.1-32.36-89.29,0-17.36,2.64-33.74,7.84-48.69,5.29-15.21,13.16-28.48,23.37-39.44,10.29-11.03,23.09-19.6,38.05-25.45,14.72-5.76,31.19-8.68,48.95-8.68,23.28,0,43.67,5.06,60.6,15.04,16.98,10.01,29.91,23.2,38.43,39.21,8.43,15.83,12.7,32.24,12.7,48.79,0,17.86-5.83,29.94-17.34,35.88-9.48,4.9-21.97,7.29-38.17,7.29h-97.26c.97,6.84,2.89,13.07,5.73,18.6,4.08,7.94,9.26,13.71,15.84,17.62,6.64,3.95,13.8,5.88,21.89,5.88,5.66,0,10.83-.65,15.37-1.95,4.49-1.27,8.92-3.31,13.19-6.07,4.69-3.03,9.06-6.3,12.99-9.74,4.17-3.65,9.73-8.74,16.52-15.13l.17-.16.18-.15c4.68-4.01,10.96-6.05,18.64-6.05,8.14,0,15,2.41,20.38,7.16,3.94,3.49,8.64,9.9,8.64,20.64,0,6.86-2.37,14.23-7.24,22.55-4.55,7.75-11.34,15.17-20.19,22.06-8.73,6.79-19.72,12.46-32.66,16.85-12.91,4.38-27.84,6.6-44.37,6.6ZM2087.67,400.21c-1.98-11.11-5.76-19.66-11.27-25.52-6.92-7.34-15.96-10.91-27.61-10.91-10.95,0-19.63,3.62-26.55,11.06-5.54,5.96-9.48,14.46-11.78,25.36h77.21Z"/>
      <path class="cls-3" d="M2050.61,315.35c21.57,0,40.08,4.55,55.52,13.65,15.44,9.1,27,20.87,34.69,35.29,7.69,14.43,11.53,29.12,11.53,44.09,0,13.89-3.98,22.89-11.93,27-7.96,4.11-19.15,6.17-33.57,6.17h-108.01c.13,12.54,2.66,23.6,7.58,33.17,4.92,9.58,11.46,16.79,19.62,21.64,8.16,4.85,17.16,7.28,27,7.28,6.61,0,12.64-.77,18.1-2.33,5.46-1.55,10.75-3.98,15.88-7.28,5.12-3.3,9.84-6.84,14.16-10.62,4.31-3.77,9.91-8.9,16.79-15.37,2.83-2.43,6.88-3.64,12.14-3.64,5.66,0,10.24,1.55,13.75,4.65,3.51,3.1,5.26,7.48,5.26,13.15,0,4.99-1.96,10.82-5.87,17.5-3.91,6.67-9.81,13.08-17.7,19.21-7.89,6.14-17.8,11.22-29.73,15.27-11.93,4.05-25.65,6.07-41.16,6.07-35.46,0-63.04-10.11-82.72-30.34-19.69-20.23-29.53-47.66-29.53-82.32,0-16.31,2.43-31.45,7.28-45.41,4.86-13.96,11.93-25.92,21.24-35.9,9.3-9.98,20.76-17.63,34.38-22.96,13.62-5.32,28.72-7.99,45.3-7.99M1998.83,410.21h100.12c-1.35-18.88-6.44-33-15.27-42.37-8.83-9.37-20.46-14.06-34.89-14.06s-25.05,4.75-33.88,14.26c-8.83,9.51-14.19,23.56-16.08,42.17M2050.61,295.35c-19.01,0-36.7,3.15-52.59,9.36-16.37,6.4-30.41,15.8-41.73,27.94-11.17,11.98-19.75,26.44-25.5,42.97-5.57,16.01-8.39,33.5-8.39,51.98,0,39.89,11.84,72.27,35.2,96.27,23.5,24.15,56.15,36.39,97.05,36.39,17.62,0,33.63-2.4,47.58-7.13,14-4.75,25.98-10.94,35.59-18.42,9.86-7.67,17.48-16.04,22.67-24.88,5.8-9.9,8.61-18.93,8.61-27.61,0-14.46-6.53-23.28-12.01-28.12-1.24-1.1-2.55-2.11-3.92-3.03,9.44-6.21,19.17-18.48,19.17-42.67,0-18.21-4.67-36.21-13.88-53.49-9.41-17.66-23.6-32.17-42.18-43.12-18.49-10.9-40.59-16.42-65.68-16.42h0ZM2024.04,390.21c1.55-3.4,3.39-6.26,5.52-8.55,5.06-5.45,10.99-7.87,19.23-7.87,11.66,0,17.19,4.44,20.34,7.78,2.13,2.26,3.93,5.15,5.4,8.65h-50.49ZM2022.4,461.56h73.19c-2.9,2.66-5.43,4.93-7.57,6.81-3.57,3.12-7.55,6.1-11.83,8.87-3.44,2.22-6.97,3.85-10.5,4.85-3.66,1.04-7.91,1.57-12.64,1.57-6.23,0-11.72-1.46-16.78-4.47-4.91-2.92-8.86-7.37-12.06-13.6-.66-1.29-1.27-2.63-1.81-4.03h0Z"/>
    </g>
    <g>
      <path class="cls-2" d="M2366.74,550.26c-9.46,0-17.08-2.82-22.64-8.39-4.19-4.19-9.45-11.21-16.09-21.46l-.15-.24-42.31-69.53-17.82,16.86v39.58c0,13.3-3.78,23.92-11.24,31.56-7.53,7.7-16.43,11.61-26.47,11.61-11.35,0-20.89-4.15-27.62-11.99-6.43-7.5-9.69-18.13-9.69-31.59v-235.43c0-14.6,2.95-25.7,9.03-33.95,6.59-8.94,16.37-13.67,28.27-13.67s20.95,4.21,27.8,12.17c6.57,7.64,9.9,18.48,9.9,32.21v108.91l44.86-47.05c8.16-8.58,14.35-14.39,18.92-17.75,5.79-4.24,12.74-6.39,20.68-6.39,9.5,0,17.61,3.14,24.1,9.34,6.52,6.24,9.97,14.44,9.97,23.71,0,11.32-8.18,23.96-25.76,39.79l-23.08,21.17,52.13,81.92c4.39,6.94,7.46,12.09,9.4,15.76,2.58,4.88,3.89,9.75,3.89,14.49,0,11.36-3.34,20.65-9.92,27.6-6.73,7.11-15.54,10.71-26.18,10.71Z"/>
      <path class="cls-3" d="M2230.01,233.64c8.49,0,15.24,2.9,20.23,8.7,4.99,5.8,7.48,14.36,7.48,25.69v133.89l62.09-65.13c7.69-8.09,13.55-13.62,17.6-16.58,4.04-2.96,8.96-4.45,14.76-4.45,6.88,0,12.61,2.19,17.19,6.57,4.58,4.38,6.88,9.88,6.88,16.48,0,8.09-7.48,18.88-22.45,32.36l-29.33,26.9,56.63,88.99c4.18,6.61,7.18,11.63,9,15.07,1.82,3.44,2.73,6.71,2.73,9.81,0,8.77-2.39,15.67-7.18,20.73-4.79,5.06-11.09,7.59-18.91,7.59-6.74,0-11.93-1.82-15.57-5.46-3.64-3.64-8.56-10.25-14.77-19.82l-48.74-80.09-29.93,28.32v43.89c0,10.65-2.8,18.84-8.39,24.57-5.6,5.73-12.04,8.6-19.32,8.6-8.49,0-15.17-2.83-20.02-8.5-4.85-5.66-7.28-14.02-7.28-25.08v-235.43c0-12.27,2.36-21.61,7.08-28.01,4.72-6.4,11.46-9.61,20.22-9.61M2230.01,213.64c-15.21,0-27.78,6.14-36.33,17.75-7.38,10.02-10.98,23.06-10.98,39.87v235.43c0,15.91,4.07,28.73,12.1,38.1,8.68,10.13,20.85,15.48,35.21,15.48,12.65,0,24.28-5.06,33.62-14.62,9.35-9.58,14.09-22.54,14.09-38.55v-35.28l5.71-5.4,35.88,58.96.15.24.15.23c7.12,11,12.66,18.34,17.41,23.09,5.16,5.16,14.51,11.32,29.71,11.32,13.31,0,24.87-4.78,33.44-13.84,8.4-8.88,12.66-20.48,12.66-34.48,0-6.38-1.7-12.83-5.05-19.17-2.07-3.9-5.26-9.27-9.77-16.4l-.02-.03-.02-.03-47.63-74.85,16.9-15.51c20.05-18.08,29-32.63,29-47.16,0-12.07-4.51-22.77-13.05-30.94-8.31-7.93-19.03-12.12-31.02-12.12-10.11,0-19.05,2.8-26.58,8.32-5.13,3.77-11.57,9.78-20.27,18.94l-27.59,28.94v-83.93c0-16.19-4.14-29.22-12.32-38.73-8.82-10.25-21.06-15.66-35.39-15.66h0Z"/>
    </g>
  </g>
</svg>