<?xml version="1.0" encoding="utf-8"?>
<!-- Generator: Adobe Illustrator 28.1.0, SVG Export Plug-In . SVG Version: 6.00 Build 0)  -->
<svg version="1.1" id="Layer_1" xmlns="http://www.w3.org/2000/svg" xmlns:xlink="http://www.w3.org/1999/xlink" x="0px" y="0px"
	 viewBox="0 0 800 800" style="enable-background:new 0 0 800 800;" xml:space="preserve">
<style type="text/css">
	.st0{fill:#FFFFFF;}
</style>
<path class="st0" d="M712.9,181.5l-282-134.6c-8.1-3.9-17.3-3.9-25.5,0l-282,134.6c-0.6,0.2-1.1,0.8-1.7,1.2
	c-0.8,0.5-1.9,0.8-2.7,1.3c-0.7,0.5-1.3,1.2-1.9,1.7c-2.3,1.9-4.3,4-6,6.6c-0.6,0.8-1.3,1.8-1.9,2.7c-0.8,1.8-1.8,3.6-2.4,5.6
	c-0.2,0.8-0.8,1.8-1,2.7c-0.8,2.9-1.2,6-1.3,9.1V549c0,13.3,7.2,25.4,18.6,30.8l282,134.6c4,1.9,8.5,2.9,12.7,2.9
	c4.3-0.1,8.7-1.3,12.6-3.3l0.1,0.2l282-134.6c11.3-5.4,18.6-17.4,18.6-30.8V212C731.5,199,724.1,187,712.9,181.5z M418.1,114.5
	l204.9,97.8L418.1,310l-41-19.6l-163.8-78.4L418.1,114.5z M449.3,631.9V368.8L668.7,264V527L449.3,631.9z"/>
</svg>
