<?xml version="1.0" encoding="utf-8"?>
<!-- Generator: Adobe Illustrator 28.1.0, SVG Export Plug-In . SVG Version: 6.00 Build 0)  -->
<svg version="1.1" id="Layer_1" xmlns="http://www.w3.org/2000/svg" xmlns:xlink="http://www.w3.org/1999/xlink" x="0px" y="0px"
	 viewBox="0 0 800 800" style="enable-background:new 0 0 800 800;" xml:space="preserve">
<style type="text/css">
	.st0{fill:#FFFFFF;}
</style>
<path class="st0" d="M408.8,428.9L219.2,335c-5.5-2.6-11.7-2.6-17.2,0L12.5,428.9c-0.4,0.3-0.8,0.5-1.1,0.8
	c-0.5,0.4-1.3,0.5-1.8,0.9c-0.5,0.4-0.9,0.8-1.3,1.2c-1.5,1.3-2.9,2.8-4.1,4.6c-0.4,0.7-0.9,1.2-1.3,1.8c-0.6,1.2-1.1,2.5-1.5,3.8
	c-0.1,0.7-0.5,1.2-0.6,1.8c-0.5,2.1-0.8,4.2-0.9,6.3v234.4c0,9.2,4.8,17.7,12.5,21.5l189.5,93.7c2.7,1.3,5.6,2,8.5,2
	c2.9,0,5.9-0.9,8.5-2.2v0.3l189.5-93.7c7.6-3.7,12.5-12.1,12.5-21.5V450.3C421.3,441,416.4,432.6,408.8,428.9z M210.6,382.2
	l137.7,68.2l-137.7,68.2L183.2,505L72.9,450.5L210.6,382.2z M231.7,742.4V559.3l147.4-72.9v183.1L231.7,742.4z"/>
<path class="st0" d="M787.9,428.9L598.4,335c-5.5-2.6-11.7-2.6-17.2,0l-189.5,93.7c-0.4,0.3-0.8,0.5-1.1,0.8
	c-0.5,0.4-1.3,0.5-1.8,0.9c-0.5,0.4-0.9,0.8-1.3,1.2c-1.5,1.3-2.9,2.8-4.1,4.6c-0.4,0.7-0.9,1.2-1.3,1.8c-0.6,1.2-1.1,2.5-1.5,3.8
	c-0.1,0.7-0.5,1.2-0.6,1.8c-0.5,2.1-0.8,4.2-0.9,6.3v234.4c0,9.2,4.8,17.7,12.5,21.5l189.5,93.7c2.7,1.3,5.6,2,8.5,2
	c2.9,0,5.9-0.9,8.5-2.2v0.3l189.5-93.7c7.6-3.7,12.5-12.1,12.5-21.5V450.3C800.4,441,795.6,432.6,787.9,428.9z M589.7,382.2
	l137.7,68.2l-137.7,68.2L562.2,505L452,450.5L589.7,382.2z M610.9,742.4V559.3l147.4-72.9v183.1L610.9,742.4z"/>
<path class="st0" d="M596.9,95.7L407.3,2c-5.5-2.6-11.7-2.6-17.2,0L200.6,95.7c-0.4,0.3-0.8,0.5-1.1,0.8c-0.5,0.4-1.3,0.5-1.8,0.9
	s-0.9,0.8-1.3,1.2c-1.5,1.3-2.9,2.8-4.1,4.6c-0.4,0.7-0.9,1.2-1.3,1.8c-0.6,1.2-1.1,2.5-1.5,3.8c-0.1,0.7-0.5,1.2-0.6,1.8
	c-0.5,2.1-0.8,4.2-0.9,6.3v234.4c0,9.2,4.8,17.7,12.5,21.5l189.7,93.9c2.7,1.3,5.6,2,8.5,2c2.9,0,5.9-0.9,8.5-2.2v0.3l189.5-93.7
	c7.6-3.7,12.5-12.1,12.5-21.5V117.2C609.3,108,604.5,99.5,596.9,95.7z M398.7,49l137.7,68.2l-137.7,68.2l-27.5-13.6l-110.2-54.5
	L398.7,49z M419.8,409.3v-183l147.4-72.9v183L419.8,409.3z"/>
</svg>
