<?xml version="1.0" encoding="utf-8"?>
<!-- Generator: Adobe Illustrator 28.1.0, SVG Export Plug-In . SVG Version: 6.00 Build 0)  -->
<svg version="1.1" id="Layer_1" xmlns="http://www.w3.org/2000/svg" xmlns:xlink="http://www.w3.org/1999/xlink" x="0px" y="0px"
	 viewBox="0 0 800 800" style="enable-background:new 0 0 800 800;" xml:space="preserve">
<style type="text/css">
	.st0{fill:#FFFFFF;}
	.st1{fill-rule:evenodd;clip-rule:evenodd;fill:#FFFFFF;}
</style>
<path class="st0" d="M424,329.5c22.2-7.2,40.1-24.1,48.6-45.7L660.7,472c-21.6,8.4-38.6,26.2-45.7,48.6L424,329.5z"/>
<path class="st0" d="M376,329.5L185.1,520.5c-7.2-22.2-24.1-40.1-45.7-48.6l188.1-188.1C336,305.4,353.8,322.4,376,329.5z"/>
<path class="st1" d="M400,211.2c-24.6,0-44.4,19.9-44.4,44.4S375.5,300,400,300c24.5,0,44.4-19.9,44.4-44.4S424.6,211.2,400,211.2z
	 M288.9,255.6c0-61.4,49.7-111.1,111.1-111.1s111.1,49.7,111.1,111.1S461.4,366.7,400,366.7S288.9,316.9,288.9,255.6z"/>
<path class="st1" d="M111.1,500c-24.6,0-44.4,19.9-44.4,44.4s19.9,44.4,44.4,44.4s44.4-19.9,44.4-44.4S135.7,500,111.1,500z
	 M0,544.4c0-61.4,49.7-111.1,111.1-111.1s111.1,49.7,111.1,111.1s-49.7,111.1-111.1,111.1S0,605.8,0,544.4z"/>
<path class="st1" d="M688.9,500c-24.6,0-44.4,19.9-44.4,44.4s19.9,44.4,44.4,44.4c24.5,0,44.4-19.9,44.4-44.4S713.4,500,688.9,500z
	 M577.7,544.4c0-61.4,49.7-111.1,111.1-111.1S800,483.1,800,544.4s-49.7,111.1-111.1,111.1C627.5,655.6,577.7,605.8,577.7,544.4z"/>
</svg>
