<?xml version="1.0" encoding="utf-8"?>
<!-- Generator: Adobe Illustrator 28.1.0, SVG Export Plug-In . SVG Version: 6.00 Build 0)  -->
<svg version="1.1" id="Layer_1" xmlns="http://www.w3.org/2000/svg" xmlns:xlink="http://www.w3.org/1999/xlink" x="0px" y="0px"
	 viewBox="0 0 800 800" style="enable-background:new 0 0 800 800;" xml:space="preserve">
<style type="text/css">
	.st0{fill:none;stroke:#FFFFFF;stroke-width:66.6667;stroke-linecap:round;stroke-linejoin:round;stroke-miterlimit:133.3333;}
</style>
<g id="Edit__x2F__Path">
	<path id="Vector" class="st0" d="M243.7,561.4c-14.6-15.1-34.7-24.4-57-24.4c-44.5,0-80.6,37.1-80.6,83s36.1,83,80.6,83
		s80.6-37.1,80.6-83C267.3,597.1,258.3,576.4,243.7,561.4z M243.7,561.4l312.6-321.8 M556.4,239.5c14.6,15.1,34.7,24.4,57,24.4
		c44.5,0,80.6-37.1,80.6-83s-36.1-83-80.5-83c-44.5,0-80.6,37.1-80.6,83C532.8,203.8,541.8,224.5,556.4,239.5z M556.4,239.5
		L556.4,239.5"/>
</g>
</svg>
