<?xml version="1.0" encoding="utf-8"?>
<svg viewBox="0 0 500 500" xmlns="http://www.w3.org/2000/svg">
  <g transform="matrix(3.6090168952941895, 0, 0, 3.6090168952941895, -1200.6038818359375, -1812.7978515625)" style="">
    <path fill-rule="evenodd" stroke="#555555" stroke-width="0" opacity="1" d="M 382.0787353678192,571.56787109375 L 382.07873552514786,571.5678712673354 L 401.9387205295401,591.4278562717276 L 401.938720703125,591.4278564290559 L 401.9387208767101,591.4278562717285 L 421.79882795141316,571.5678712673358 L 421.7988281087431,571.5678710937499 L 421.79882795141447,571.5678709201645 L 401.93872087671053,551.7077638454605 L 401.938720703125,551.7077636881318 L 401.93872052954094,551.7077638454601 L 382.0787355251469,571.5678709201645 L 382.0787353678192,571.56787109375 z" style="fill: rgb(255, 255, 255);"/>
  </g>
  <g transform="matrix(3.6090168952941895, 0, 0, 3.6090168952941895, -1200.6036376953125, -1812.7978515625)" style="">
    <path fill-rule="evenodd" stroke="#555555" stroke-width="0" opacity="1" d="M 365.8138427910936,607.6927490230041 L 365.813842961017,607.6927491934499 L 369.5286863468946,611.059692222803 L 369.5286866931164,611.0596925077776 L 373.55554179473376,614.0462645019933 L 373.55554220285507,614.0462647747077 L 377.8558347500738,616.6237791704873 L 377.85583518297346,616.6237794018888 L 382.38806130119497,618.7673338792636 L 382.3880617547044,618.7673340671194 L 387.1086423537896,620.4562987478606 L 387.1086427828963,620.4562988786979 L 391.9719235970008,621.6745604889779 L 391.9719238447182,621.6745605386274 L 391.9719240367875,621.6745605771233 L 396.93127417837775,622.4101562150421 L 396.9312746245424,622.410156259631 L 401.93872045026956,622.656127917267 L 401.9387206877177,622.6561279169014 L 401.9387207185207,622.6561279169014 L 401.93872095598084,622.6561279172672 L 406.94628882452184,622.4101562616895 L 406.9462892708069,622.4101562183877 L 411.90563941274934,621.6745605818335 L 411.90563966060176,621.674560532907 L 411.90563985279266,621.6745604949682 L 416.76892066000266,620.4562988878534 L 416.7689211296618,620.4562987453899 L 421.48950172878824,618.7672119943331 L 421.4895021433475,618.7672118233146 L 426.0217283002353,616.6236573284328 L 426.02172852310434,616.6236572097216 L 426.0217286961375,616.6236571175556 L 430.32189920326493,614.0461427044767 L 430.3218996112849,614.0461424318568 L 434.34887676174844,611.0595704544328 L 434.34887695712126,611.0595702945678 L 434.34887710899585,611.0595701702956 L 438.06372052098453,607.6926271182077 L 438.06372086805777,607.6926267711493 L 441.43054183217987,603.9779054499791 L 441.43054199260104,603.9779052550793 L 441.430542117328,603.9779051035455 L 444.41711411139266,599.9509279318017 L 444.4171143840636,599.9509275237392 L 446.99462877986207,595.6506349764891 L 446.99462901126435,595.6506345435878 L 449.1381834918797,591.1184084185145 L 449.1381836641187,591.1184080043787 L 450.8272704275401,586.3979494430857 L 450.827270501198,586.3979492015369 L 450.8272705583673,586.3979490140598 L 452.04541009788477,581.5346682017665 L 452.04541014228795,581.5346679797483 L 452.04540991604375,581.534667970926 L 446.2645266203672,581.587036130519 L 446.26452637684395,581.5870361450712 L 446.26452630566894,581.587036378416 L 445.4667969943551,584.7718501094304 L 445.4667967095181,584.7718510484513 L 443.9630128608632,588.9748530529189 L 443.9630124851912,588.97485395987 L 442.05444356933776,593.0100093217152 L 442.05444310692985,593.0100101868279 L 439.7596438073171,596.8388667659893 L 439.7596432619474,596.83886758221 L 437.10046415984823,600.4243160116471 L 437.10046353725716,600.4243167702657 L 434.1027835329789,603.7316890891937 L 434.1027828391942,603.7316897829796 L 430.7952884500412,606.7294918574886 L 430.7952876912321,606.7294924802233 L 427.2098392616645,609.3885495121336 L 427.20983844594207,609.3885500571796 L 423.38110393702993,611.6834714270998 L 423.38110307148975,611.6834718897505 L 419.3458256395064,613.5920408055342 L 419.34582473266096,613.5920411811562 L 415.14282272801347,615.0958250298754 L 415.1428217892513,615.0958253146476 L 410.8127446173432,616.1805418727661 L 410.81274365449616,616.1805420642897 L 406.39721728265187,616.8354491467 L 406.3972163063754,616.8354492428559 L 401.93872119399026,617.0545654055635 L 401.93872021225974,617.0545654055635 L 397.4802250998746,616.8354492428559 L 397.48022412359813,616.8354491467 L 393.06469775175384,616.1805420642897 L 393.0646967889068,616.1805418727661 L 388.7346196170435,615.0958253146589 L 388.7346186781946,615.0958250298556 L 384.53173874374033,613.5920411811034 L 384.53173783720507,613.5920408056181 L 380.49646040518957,611.6835939601049 L 380.4964595394259,611.6835934973484 L 376.6677250307146,609.3886721275485 L 376.6677242148158,609.3886715823717 L 373.08227578515437,606.7294924801062 L 373.08227502667177,606.7294918576384 L 369.77478046139663,603.7318116937904 L 369.77478027385393,603.7318115403939 L 369.77478009406445,603.7318117028105 L 365.81384295244953,607.6927488444254 L 365.8138427910936,607.6927490230041 z" style="fill: rgb(255, 255, 255);"/>
    <path fill-rule="evenodd" stroke="#555555" stroke-width="0" opacity="1" d="M 433.7336425972832,576.5811767470988 L 433.7336428192838,576.5811767578125 L 464.31677221977645,576.5811767578125 L 464.3167724417791,576.5811767470987 L 464.31677233468076,576.5811765523441 L 449.02514661151986,551.6958009881638 L 449.025146484375,551.695800802142 L 449.025146357231,551.695800988164 L 433.73364270438105,576.5811765523435 L 433.7336425972832,576.5811767470988 z" style="fill: rgb(255, 255, 255);"/>
  </g>
  <g transform="matrix(3.6090168952941895, 0, 0, 3.6090168952941895, -1200.6036376953125, -1812.7978515625)" style="">
    <path fill-rule="evenodd" stroke="#555555" stroke-width="0" opacity="1" d="M 351.83203126396205,561.6009521374392 L 351.83203149020625,561.6009521462615 L 357.6129147858828,561.5485839866685 L 357.61291502940605,561.5485839721163 L 357.61291510058106,561.5485837387715 L 358.4106444118949,558.3637700077571 L 358.4106446967319,558.3637690687362 L 359.91442854540645,554.1607670642136 L 359.9144289210285,554.1607661573681 L 361.8229978368119,550.1254887253853 L 361.82299829946265,550.1254878598451 L 364.11791966938307,546.2967533509327 L 364.11792021442903,546.2967525352103 L 366.77697724633924,542.7113041056429 L 366.77697786907396,542.7113033468337 L 369.77477994352097,539.403808957749 L 369.774780637443,539.403808263841 L 373.0822750266503,536.4061282595685 L 373.08227578517847,536.4061276370669 L 376.66760214446805,533.747070605151 L 376.66760296044185,533.7470700599357 L 380.49645953958975,531.4521486900453 L 380.4964604050094,531.4521482274669 L 384.53173783709786,529.5435793116336 L 384.5317387438566,529.5435789360426 L 388.7346186781946,528.0397950873319 L 388.7346196170435,528.0397948025286 L 393.0646967889068,526.9550782444214 L 393.06469775175384,526.9550780528978 L 397.48022412359813,526.3001709704876 L 397.4802250998746,526.3001708743316 L 401.93872021225974,526.081054711624 L 401.93872119399026,526.081054711624 L 406.3972163063754,526.3001708743316 L 406.39721728265187,526.3001709704876 L 410.81274365449616,526.9550780528978 L 410.8127446173432,526.9550782444214 L 415.1428217892065,528.0397948025286 L 415.1428227280554,528.0397950873319 L 419.34570266250967,529.5435789360841 L 419.34570356904493,529.5435793115694 L 423.3809810011238,531.4520261571126 L 423.3809818667669,531.4520266197968 L 427.2098384457136,533.7469479895666 L 427.20983926186386,533.7469485349127 L 430.7951656211664,536.4061276371239 L 430.79516637951815,536.4061282594946 L 434.10266094485337,539.4038084233971 L 434.10266113239607,539.4038085767936 L 434.10266131218555,539.403808414377 L 438.0635984538026,535.4428712727598 L 438.063598615157,535.4428710941833 L 438.06359844523837,535.4428709237369 L 434.3488771296647,532.0759278943867 L 434.3488769346703,532.0759277338818 L 434.3488767833525,532.0759276093283 L 430.3218996054378,529.0893556106818 L 430.32189923294874,529.0893553610172 L 426.0216066561762,526.5118409467002 L 426.02160622327654,526.5118407152987 L 421.48938010503576,524.3682862379148 L 421.489379651566,524.3682860500733 L 416.7689211367983,522.6793213743472 L 416.7689209094606,522.6793213057676 L 416.7689208799506,522.6793212968159 L 416.7689206528639,522.6793212275473 L 411.9055178092496,521.4610596282082 L 411.9055175615719,521.4610595785682 L 411.90551736941404,521.4610595400557 L 406.94616722787225,520.7254639021454 L 406.9461667817076,520.7254638575565 L 401.93872095598044,520.4794921999205 L 401.9387207185323,520.4794922002861 L 401.9387206877293,520.4794922002861 L 401.93872045026916,520.4794921999203 L 396.93115258172816,520.725463855498 L 396.9311521354431,520.7254638987998 L 391.97180199350066,521.461059535354 L 391.97180174564824,521.4610595842805 L 391.97180155345734,521.4610596222193 L 387.1085207533824,522.6793212275468 L 387.1085205262916,522.679321296818 L 387.10852049672803,522.6793213057862 L 387.108520269451,522.6793213743475 L 382.3880617477751,524.3682860525453 L 382.38806133333276,524.3682862235086 L 377.85583517632466,526.5118407184433 L 377.855834953541,526.511840837109 L 377.8558347804976,526.5118409292805 L 373.5555422029653,529.0894774127203 L 373.5555417949816,529.0894776853185 L 369.5285646445037,532.0760496627532 L 369.5285644489841,532.0760498227384 L 369.5285642973588,532.0760499468067 L 365.81384296101356,535.4429929940476 L 365.81384279354955,535.4429931620319 L 365.8138427716202,535.4429931839613 L 365.81384260342537,535.4429933516356 L 362.4468995740753,539.1577146672091 L 362.4468994135411,539.1577148622392 L 362.44689928901425,539.1577150135246 L 359.4603272903698,543.1846921914365 L 359.46032704070507,543.1846925639258 L 356.88281262249353,547.4849851471959 L 356.88281241060656,547.4849855422331 L 354.7392579143703,552.017211698673 L 354.7392577421313,552.0172121128088 L 353.0501709787099,556.7376706741018 L 353.050170905052,556.7376709156506 L 353.0501708478827,556.7376711031277 L 351.83203130836523,561.600951915421 L 351.83203126396205,561.6009521374392 z" style="fill: rgb(255, 255, 255);"/>
    <path fill-rule="evenodd" stroke="#555555" stroke-width="0" opacity="1" d="M 339.5606689644709,566.5544433700888 L 339.56066907156924,566.5544435648434 L 354.8522947947303,591.439819129024 L 354.852294921875,591.4398193150457 L 354.8522950490197,591.439819129024 L 370.14392077218076,566.5544435648434 L 370.1439208792791,566.5544433700888 L 370.14392065727645,566.554443359375 L 339.56066918647355,566.554443359375 L 339.5606689644709,566.5544433700888 z" style="fill: rgb(255, 255, 255);"/>
  </g>
</svg>