<?xml version="1.0" encoding="utf-8"?>
<svg viewBox="0 0 500 500" xmlns="http://www.w3.org/2000/svg">
  <g transform="matrix(3.6090168952941895, 0, 0, 3.6090168952941895, -1194.8338623046875, -2430.851318359375)" style="">
    <path fill-rule="evenodd" stroke="#555555" stroke-width="0" opacity="1" d="M 357.8416748161827,697.1246338005578 L 357.8416748046875,697.1246340345486 L 357.8416748046875,732.7390134263889 L 357.8416748161827,732.7390136603797 L 357.84167505017336,732.739013671875 L 363.60571264513914,732.739013671875 L 363.6057128791298,732.7390136603797 L 363.605712890625,732.7390134263889 L 363.605712890625,702.888681875 L 363.6057129387777,702.8886808948286 L 363.6057130827722,702.8886799240968 L 363.60571332122163,702.8886789721532 L 363.60571365182966,702.8886780481656 L 363.6057140714123,702.8886771610327 L 363.60571457592886,702.8886763192976 L 363.60571516052045,702.8886755310672 L 363.6057158195572,702.8886748039322 L 363.6057165466921,702.8886741448954 L 363.60571733492264,702.8886735603038 L 363.6057181766576,702.8886730557873 L 363.6057190637907,702.8886726362047 L 363.60571998777823,702.8886723055966 L 363.6057209397218,702.8886720671471 L 363.60572191045355,702.8886719231527 L 363.605722890625,702.888671875 L 440.271718515625,702.888671875 L 440.27171949579645,702.8886719231527 L 440.2717204665282,702.8886720671471 L 440.27172141847177,702.8886723055966 L 440.2717223424593,702.8886726362047 L 440.2717232295924,702.8886730557873 L 440.27172407132736,702.8886735603038 L 440.2717248595579,702.8886741448954 L 440.2717255866928,702.8886748039322 L 440.27172624572955,702.8886755310672 L 440.27172683032114,702.8886763192976 L 440.2717273348377,702.8886771610327 L 440.27172775442034,702.8886780481656 L 440.27172808502837,702.8886789721532 L 440.2717283234778,702.8886799240968 L 440.2717284674723,702.8886808948286 L 440.271728515625,702.888681875 L 440.271728515625,779.5546775 L 440.2717284674723,779.5546784801714 L 440.2717283234778,779.5546794509032 L 440.27172808502837,779.5546804028468 L 440.27172775442034,779.5546813268344 L 440.2717273348377,779.5546822139673 L 440.27172683032114,779.5546830557024 L 440.27172624572955,779.5546838439328 L 440.2717255866928,779.5546845710678 L 440.2717248595579,779.5546852301046 L 440.27172407132736,779.5546858146962 L 440.2717232295924,779.5546863192127 L 440.2717223424593,779.5546867387953 L 440.27172141847177,779.5546870694034 L 440.2717204665282,779.5546873078529 L 440.27171949579645,779.5546874518473 L 440.271718515625,779.5546875 L 410.42138696423586,779.5546875 L 410.4213867302452,779.5546875114953 L 410.42138671875,779.5546877454861 L 410.42138671875,785.3187253404514 L 410.4213867302452,785.3187255744422 L 410.42138696423586,785.3187255859375 L 446.03576635607664,785.3187255859375 L 446.0357665900673,785.3187255744422 L 446.0357666015625,785.3187253404514 L 446.0357666015625,697.1246340345486 L 446.0357665900673,697.1246338005578 L 446.03576635607664,697.1246337890625 L 357.84167505017336,697.1246337890625 L 357.8416748161827,697.1246338005578 z" style="fill: rgb(255, 255, 255);"/>
  </g>
  <g transform="matrix(3.6090168952941895, 0, 0, 3.6090168952941895, -1194.8338623046875, -2430.851318359375)" style="">
    <path fill-rule="evenodd" stroke="#555555" stroke-width="0" opacity="1" d="M 404.3103027506318,734.66259765625 L 404.3103029079611,734.662597829836 L 408.4978025607899,738.850097482665 L 408.497802734375,738.8500976399932 L 408.4978029079601,738.850097482665 L 422.31884058514424,725.0290598054808 L 422.3188413122818,725.0290591464419 L 422.31884210051527,725.0290585618487 L 422.3188429422535,725.0290580573312 L 422.31884382939006,725.0290576377481 L 422.31884475338126,725.0290573071403 L 422.3188457053285,725.0290570686918 L 422.31884667606397,725.0290569246989 L 422.3188476562388,725.0290568765486 L 422.3188486364134,725.0290569247043 L 422.3188496071481,725.0290570687023 L 422.3188505590941,725.0290573071559 L 422.3188514830835,725.0290576377686 L 422.31885237021777,725.0290580573565 L 422.31885321195335,725.0290585618785 L 422.3188540001837,725.0290591464759 L 422.3188547273177,725.0290598055186 L 428.0117185725775,730.7219846858568 L 428.0117187437945,730.7219848407025 L 428.0117188118247,730.7219846201027 L 433.3208007205557,709.8394777777945 L 433.32080076573595,709.8394775545767 L 433.32080054251793,709.8394775997583 L 412.43835473536507,715.1486815787989 L 412.43835451476593,715.1486816468304 L 412.43835466961025,715.1486818180458 L 418.1313405850907,720.8416066984478 L 418.1313412441343,720.8416074255829 L 418.1313418287324,720.8416082138145 L 418.13134233325485,720.8416090555514 L 418.13134275284284,720.8416099426871 L 418.1313430834554,720.8416108666781 L 418.1313433219087,720.8416118186256 L 418.131343465906,720.8416127893618 L 418.13134351406075,720.8416137695377 L 418.13134346590914,720.8416147497139 L 418.1313433219148,720.8416157204506 L 418.13134308346457,720.8416166723988 L 418.1313427528549,720.8416175963907 L 418.1313423332697,720.8416184835279 L 418.1313418287499,720.8416193252664 L 418.13134124415427,720.8416201134999 L 418.131340585113,720.841620840637 L 404.31030290795985,734.6625974826659 L 404.3103027506318,734.66259765625 z" style="fill: rgb(255, 255, 255);"/>
  </g>
  <g transform="matrix(3.6090168952941895, 0, 0, 3.6090168952941895, -1194.8338623046875, -2430.851318359375)" style="">
    <path fill-rule="evenodd" stroke="#555555" stroke-width="0" opacity="1" d="M 354.6442871208702,741.2216796989953 L 354.644287109375,741.2216799329861 L 354.644287109375,788.5161740709201 L 354.6442871208702,788.5161743049109 L 354.64428735486086,788.5161743164062 L 401.93872045763914,788.5161743164062 L 401.9387206916298,788.5161743049109 L 401.938720703125,788.5161740709201 L 401.938720703125,741.2216799329861 L 401.9387206916298,741.2216796989953 L 401.93872045763914,741.2216796875 L 354.64428735486086,741.2216796875 L 354.6442871208702,741.2216796989953 z" style="fill: rgb(255, 255, 255);"/>
  </g>
</svg>