<?xml version="1.0" encoding="utf-8"?>
<svg viewBox="0 0 500 500" xmlns="http://www.w3.org/2000/svg">
  <g transform="matrix(3.6090168952941895, 0, 0, 3.6090168952941895, 23.65670394897461, -1812.7225341796875)" style="">
    <path fill-rule="evenodd" stroke="#555555" stroke-width="0" opacity="1" d="M 36.56201173183563,515.6805419922782 L 36.56201180288839,515.6805422277005 L 37.334350499826904,517.842406985529 L 37.33435059671056,517.8424072183695 L 37.33435079521152,517.8424073739269 L 38.69274881437988,518.7989500481004 L 38.69274902751571,518.7989501824372 L 38.692749279127014,518.7989501953125 L 54.47485326099123,518.7989501953125 L 54.474853511597445,518.7989501825416 L 54.47485372419039,518.7989500492347 L 55.84057596233934,517.8424073733198 L 55.84057616113572,517.8424072183494 L 55.84057625862687,517.8424069859021 L 56.61987296209435,515.6805422273794 L 56.619873033798505,515.6805419922392 L 56.61987296023458,515.6805417576744 L 55.82482918912338,513.5285646901295 L 55.82482909112819,513.5285644611732 L 55.82482889456261,513.5285643082507 L 54.443969935059926,512.5621339349849 L 54.44396972254202,512.5621338018192 L 54.44396947207217,512.5621337890625 L 38.752197519166614,512.5621337890625 L 38.752197269600295,512.5621338017257 L 38.7521970575737,512.5621339339681 L 37.36462423048844,513.5285643089161 L 37.364624033821286,513.5285644611789 L 37.36462393526307,513.5285646895397 L 36.56201180614466,515.6805417578635 L 36.56201173183563,515.6805419922782 z" style="fill: rgb(255, 255, 255);"/>
    <path fill-rule="evenodd" stroke="#555555" stroke-width="0" opacity="1" d="M 4.009033216209031,532.2753906216418 L 4.009033328331579,532.2753908496856 L 4.975585810479726,534.0098874673722 L 4.975585947094432,534.009887685 L 4.975586173999374,534.0098878055796 L 7.127441190649053,535.0131834932267 L 7.12744140634948,535.0131835815674 L 7.127441623465749,535.0131834967627 L 9.289428468177416,534.0478516708929 L 9.289428701077375,534.0478515516777 L 9.289428841406098,534.0478513308537 L 10.24584948689591,532.3497316627735 L 10.245849597110595,532.3497314420051 L 10.24584961283961,532.3497311957565 L 10.432739120967634,518.8880713803794 L 10.432739181725928,518.8880704098605 L 10.432739336460454,518.8880694498313 L 10.432739583708038,518.8880685093701 L 10.432739921130715,518.8880675973697 L 10.432740345537818,518.8880667224541 L 10.43274085291616,518.8880658928964 L 10.432741438467977,518.888065116541 L 10.4327420966563,518.888064400729 L 10.432742821257307,518.8880637522292 L 10.432743605419182,518.8880631771736 L 10.4327444417269,518.8880626810002 L 10.432745322272346,518.8880622684005 L 10.432746238729095,518.8880619432764 L 10.432747182431141,518.888061708702 L 10.432748144454852,518.8880615668955 L 10.432749115703343,518.8880615191979 L 24.05688451158847,518.8822021485468 L 24.05688476231027,518.882202135692 L 24.0568849875342,518.882202024778 L 25.791381607987972,517.915649541088 L 25.79138182562414,517.9156494044673 L 25.791381946203632,517.9156491775518 L 26.79467763385607,515.7636720906039 L 26.79467772219245,515.7636718749008 L 26.79467763738321,515.7636716577865 L 25.82934581151044,513.6018068833547 L 25.829345692305107,513.6018066504826 L 25.829345471512443,513.6018065101588 L 24.131225809466425,512.6452637977878 L 24.1312255825289,512.6452636848727 L 24.131225329383014,512.645263671875 L 9.098999219258982,512.645263671875 L 9.098999024038138,512.6452636795236 L 9.098998830012851,512.6452637024227 L 7.494385043540519,512.8986815967336 L 7.4943844943946285,512.8986817154425 L 6.269897731803801,513.2364501205955 L 6.26989746766738,513.2364502096937 L 6.269897230027181,513.2364503554118 L 5.2142336207790665,513.9683836349043 L 5.214233408666101,513.9683837996417 L 5.214233236869864,513.9683840060803 L 4.575073382029813,514.8269041090387 L 4.57507325185231,514.8269043021485 L 4.575073159911308,514.8269045161215 L 4.104980546295714,516.079589637109 L 4.104980478410889,516.0795898455327 L 4.1049804674424815,516.0795900644579 L 4.009033204648773,532.2753903677885 L 4.009033216209031,532.2753906216418 z" style="fill: rgb(255, 255, 255);"/>
    <path fill-rule="evenodd" stroke="#555555" stroke-width="0" opacity="1" d="M 3.7784423938849048,545.2299804725666 L 3.7784423828125,545.2299807058912 L 3.7784423828125,559.3926999383735 L 3.7784423958119047,559.3927001911734 L 3.778442531373975,559.3927004049482 L 4.734863133760088,560.7423093621888 L 4.734863289364867,560.7423095595989 L 4.734863521544519,560.74230965591 L 6.896850352992188,561.5124510888954 L 6.896850585887666,561.5124511590944 L 6.896850818222896,561.5124510870722 L 9.048827888333685,560.7268067270272 L 9.048828117047568,560.7268066302141 L 9.048828270610786,560.726806435019 L 10.015258640639603,559.3621828267643 L 10.01525877607586,559.3621826130548 L 10.0152587890625,559.3621823603768 L 10.0152587890625,545.2835695711864 L 10.015258778163298,545.283569339662 L 10.015258645092677,545.2835691498879 L 9.048828275055179,544.0346681626637 L 9.048828117822538,544.0346679788456 L 9.048827892554012,544.0346678907187 L 6.896850836817389,543.3122559435946 L 6.896850585844961,543.3122558738762 L 6.896850334003405,543.3122559403848 L 4.7348635176361205,544.0074462130522 L 4.7348632885230195,544.0074462994901 L 4.734863128250333,544.0074464846326 L 3.7784425289323322,545.229980281974 L 3.7784423938849048,545.2299804725666 z" style="fill: rgb(255, 255, 255);"/>
    <path fill-rule="evenodd" stroke="#555555" stroke-width="0" opacity="1" d="M 3.778442393799444,588.4804687462289 L 3.7784425278717864,588.4804689364202 L 4.734863128761047,589.7095945305942 L 4.73486328854992,589.7095947161537 L 4.734863517438666,589.7095948031895 L 6.896850334313165,590.4110106605527 L 6.89685058588475,590.4110107276978 L 6.896850836957768,590.4110106587182 L 9.048827892141418,589.6954346477427 L 9.048828117836818,589.695434560181 L 9.048828275638922,589.6954343765958 L 10.015258644130903,588.4526369051273 L 10.015258778085858,588.4526367149845 L 10.0152587890625,588.4526364826534 L 10.0152587890625,574.3300783602658 L 10.015258778161757,574.3300781287254 L 10.015258645073429,574.3300779389436 L 9.048828275053038,573.081299022017 L 9.048828117823886,573.0812988382191 L 9.048827892573195,573.0812987501 L 6.896850836798755,572.3588868029633 L 6.896850585844699,572.3588867332489 L 6.896850334017551,572.3588867997411 L 4.734863517662939,573.0539550021194 L 4.734863288523713,573.053955088555 L 4.734863128237424,573.0539552737116 L 3.7784425289323322,574.2764890710365 L 3.7784423938849048,574.2764892616291 L 3.7784423828125,574.2764894949537 L 3.7784423828125,588.4804685137907 L 3.778442393799444,588.4804687462289 z" style="fill: rgb(255, 255, 255);"/>
    <path fill-rule="evenodd" stroke="#555555" stroke-width="0" opacity="1" d="M 3.778442393799444,617.4251708946664 L 3.7784425278717864,617.4251710848577 L 4.734863128761047,618.6542966790317 L 4.73486328854992,618.6542968645912 L 4.734863517438666,618.654296951627 L 6.896850334313165,619.3557128089902 L 6.89685058588475,619.3557128761353 L 6.896850836957768,619.3557128071557 L 9.048827892141418,618.6401367961802 L 9.048828117836818,618.6401367086185 L 9.048828275638922,618.6401365250333 L 10.015258644130903,617.3973390535648 L 10.015258778085858,617.397338863422 L 10.0152587890625,617.3973386310909 L 10.0152587890625,603.2749025789989 L 10.015258778163298,603.2749023474745 L 10.015258645092677,603.2749021577004 L 9.048828275055179,602.0260011704762 L 9.048828117822538,602.0260009866581 L 9.048827892554012,602.0260008985312 L 6.896850836817389,601.303588951407 L 6.896850585844961,601.3035888816887 L 6.896850334003405,601.3035889481973 L 4.7348635176361205,601.9987792208647 L 4.7348632885230195,601.9987793073026 L 4.734863128250333,601.9987794924451 L 3.7784425289323322,603.2213132897865 L 3.7784423938849048,603.2213134803791 L 3.7784423828125,603.2213137137037 L 3.7784423828125,617.4251706622282 L 3.778442393799444,617.4251708946664 z" style="fill: rgb(255, 255, 255);"/>
    <path fill-rule="evenodd" stroke="#555555" stroke-width="0" opacity="1" d="M 12.14184571621188,627.4133300782161 L 12.141845787263016,627.4133303136502 L 12.914184484195443,629.5753171417474 L 12.914184581088088,629.5753173746169 L 12.914184779623056,629.5753175301838 L 14.272582798766113,630.5317381340647 L 14.272583011889646,630.5317382683774 L 14.27258326347568,630.53173828125 L 30.05468724539145,630.53173828125 L 30.054687495973575,630.5317382684817 L 30.054687708553523,630.5317381351991 L 31.42040994667898,629.575317529576 L 31.42041014550802,629.5753173745971 L 31.420410243008558,629.5753171421201 L 32.1997069464759,627.413330313312 L 32.199707018174216,627.4133300781768 L 32.19970694461187,627.413329843618 L 31.404663173498154,625.2613527760665 L 31.404663075503287,625.261352547111 L 31.404662878937387,625.2613523941881 L 30.023803919434958,624.2949220209224 L 30.02380370691704,624.2949218877567 L 30.023803456447173,624.294921875 L 14.33215357385411,624.294921875 L 14.332153324287658,624.2949218876632 L 14.332153112261176,624.2949220199056 L 12.944580285158585,625.2613523948658 L 12.94458008850682,625.2613525471154 L 12.94457998994603,625.2613527754535 L 12.141845790535347,627.4133298437946 L 12.14184571621188,627.4133300782161 z" style="fill: rgb(255, 255, 255);"/>
    <path fill-rule="evenodd" stroke="#555555" stroke-width="0" opacity="1" d="M 41.203002942772414,627.4133300782158 L 41.20300301381947,627.4133303136333 L 41.975341710757995,629.5753171417475 L 41.97534180765062,629.575317374617 L 41.97534200618543,629.5753175301837 L 43.33374002532863,630.5317381340647 L 43.3337402384522,630.5317382683774 L 43.333740490038174,630.53173828125 L 59.11584447195395,630.53173828125 L 59.1158447225362,630.5317382684816 L 59.11584493511605,630.5317381351991 L 60.481567173241295,629.5753175295761 L 60.4815673720706,629.575317374597 L 60.481567469571,629.5753171421202 L 61.2608641730384,627.413330313312 L 61.260864244736716,627.4133300781768 L 61.26086417117437,627.413329843618 L 60.46582040006088,625.261352776067 L 60.46582030206569,625.2613525471107 L 60.46582010550011,625.2613523941882 L 59.084961145997426,624.2949220209224 L 59.08496093347952,624.2949218877567 L 59.08496068300967,624.294921875 L 43.393188730104114,624.294921875 L 43.393188480537795,624.2949218876632 L 43.3931882685112,624.2949220199056 L 42.00561544142594,625.2613523948536 L 42.005615244758786,625.2613525471164 L 42.00561514620057,625.2613527754772 L 41.20300301707993,627.413329843807 L 41.203002942772414,627.4133300782158 z" style="fill: rgb(255, 255, 255);"/>
    <path fill-rule="evenodd" stroke="#555555" stroke-width="0" opacity="1" d="M 65.6085205209001,515.6805419922786 L 65.60852059195695,515.6805422277175 L 66.38085928888961,517.8424069855296 L 66.38085938577294,517.8424072183693 L 66.3808595842738,517.8424073739268 L 67.73925760344233,518.7989500481004 L 67.73925781657822,518.7989501824372 L 67.73925806818953,518.7989501953125 L 83.52136205005372,518.7989501953125 L 83.52136230066007,518.7989501825416 L 83.52136251325311,518.7989500492346 L 84.88708475141944,517.8424073733075 L 84.88708495020022,517.8424072183506 L 84.88708504769443,517.8424069859258 L 85.66650382144546,515.6805422274089 L 85.6665038931696,515.6805419922393 L 85.66650381958551,515.6805417576452 L 84.87133797819045,513.5285646901056 L 84.87133788019268,513.5285644611722 L 84.87133768364261,513.528564308263 L 83.49047872412265,512.562133934985 L 83.49047851160462,512.5621338018192 L 83.49047826113467,512.5621337890625 L 67.79882837854161,512.5621337890625 L 67.79882812897525,512.5621338017257 L 67.79882791694882,512.5621339339681 L 66.41125508984616,513.5285643089281 L 66.41125489319425,513.5285644611779 L 66.41125479463368,513.5285646895155 L 65.60852059522514,515.680541757851 L 65.6085205209001,515.6805419922786 z" style="fill: rgb(255, 255, 255);"/>
    <path fill-rule="evenodd" stroke="#555555" stroke-width="0" opacity="1" d="M 94.55334473964813,515.6805419922782 L 94.55334481070085,515.6805422277004 L 95.32568350763961,517.8424069855296 L 95.32568360452294,517.8424072183693 L 95.3256838030238,517.8424073739268 L 96.68408182219233,518.7989500481004 L 96.68408203532822,518.7989501824372 L 96.68408228693953,518.7989501953125 L 112.46618626880372,518.7989501953125 L 112.46618651941007,518.7989501825416 L 112.46618673200311,518.7989500492346 L 113.83190897015184,517.8424073733198 L 113.83190916894823,517.8424072183493 L 113.83190926643937,517.8424069859021 L 114.61120596990698,515.6805422273791 L 114.61120604161101,515.6805419922393 L 114.6112059680471,515.6805417576744 L 113.81616219693578,513.5285646901293 L 113.81616209894077,513.5285644611733 L 113.81616190237473,513.5285643082505 L 112.43530294287265,512.562133934985 L 112.43530273035462,512.5621338018192 L 112.43530247988467,512.5621337890625 L 96.74353052697911,512.5621337890625 L 96.74353027741275,512.5621338017257 L 96.74353006538632,512.5621339339681 L 95.35595723830086,513.5285643089162 L 95.3559570416338,513.5285644611789 L 95.35595694307578,513.5285646895392 L 94.55334481395711,515.6805417578636 L 94.55334473964813,515.6805419922782 z" style="fill: rgb(255, 255, 255);"/>
    <path fill-rule="evenodd" stroke="#555555" stroke-width="0" opacity="1" d="M 115.2692871206822,538.5837402305496 L 115.26928725633442,538.5837404232559 L 116.22570785530782,539.8129880852421 L 116.22570801511506,539.8129882708378 L 116.22570824404413,539.8129883578775 L 118.387695060911,540.5142821449534 L 118.38769531244724,540.5142822120777 L 118.38769556348493,540.5142821431192 L 120.53967261866055,539.7988282024314 L 120.53967284439675,539.7988281148649 L 120.53967300221822,539.7988279312427 L 121.50610336876787,538.5559083919969 L 121.50610350432383,538.5559081993044 L 121.50610351350332,538.5559079638855 L 121.38085937732872,524.4334719422716 L 121.38085936147145,524.4334716842295 L 121.38085921840056,524.4334714688964 L 120.45312514798952,523.1846925820142 L 120.453124992477,523.1846923930416 L 120.45312476575158,523.1846923009003 L 118.3872072536437,522.4622803512043 L 118.38720703117345,522.4622802849908 L 118.38720680784797,522.4622803482553 L 116.31176781661587,523.1573485529415 L 116.3117675857618,523.1573486433995 L 116.3117674270913,523.157348833923 L 115.39355484651998,524.3800046710677 L 115.3935547012539,524.380004887469 L 115.3935546851833,524.3800051476105 L 115.2692871114687,538.5837399950658 L 115.2692871206822,538.5837402305496 z" style="fill: rgb(255, 255, 255);"/>
    <path fill-rule="evenodd" stroke="#555555" stroke-width="0" opacity="1" d="M 115.26928712036194,567.6448974571664 L 115.2692872544345,567.644897647358 L 116.22570785532346,568.8740232415316 L 116.22570801511242,568.8740234270912 L 116.22570824400124,568.874023514127 L 118.3876950608756,569.5754393714902 L 118.38769531244726,569.5754394386353 L 118.38769556352023,569.5754393696557 L 120.53967261870399,568.8598633586802 L 120.53967284439913,568.8598632711186 L 120.53967300220155,568.8598630875332 L 121.50610337069324,567.6170656160649 L 121.50610350464835,567.6170654259219 L 121.506103515625,567.6170651935907 L 121.506103515625,553.4945070712033 L 121.50610350472425,553.4945068396628 L 121.50610337163569,553.4945066498808 L 120.5396730016153,552.2457277329542 L 120.53967284438627,552.2457275491565 L 120.53967261913589,552.2457274610376 L 118.38769556336132,551.5233155139009 L 118.38769531240717,551.5233154441864 L 118.38769506058004,551.5233155106786 L 116.22570824424241,552.2183837130515 L 116.22570801508813,552.2183837994936 L 116.2257078547962,552.2183839846734 L 115.26928725547512,553.441039852293 L 115.26928712044582,553.4410400428782 L 115.269287109375,553.4410402761865 L 115.269287109375,567.6448972247281 L 115.26928712036194,567.6448974571664 z" style="fill: rgb(255, 255, 255);"/>
    <path fill-rule="evenodd" stroke="#555555" stroke-width="0" opacity="1" d="M 115.26928712036037,596.6914062462298 L 115.26928725441466,596.6914064364134 L 116.22570785530782,597.9206541008671 L 116.22570801511506,597.9206542864628 L 116.22570824404413,597.9206543735025 L 118.387695060911,598.6219481605784 L 118.38769531244724,598.6219482277027 L 118.38769556348493,598.6219481587442 L 120.53967261868004,597.9064942180499 L 120.53967284439817,597.9064941304915 L 120.5396730022148,597.9064939468911 L 121.50610337069324,596.6636964754399 L 121.50610350464835,596.6636962852969 L 121.506103515625,596.6636960529657 L 121.506103515625,582.5411379305783 L 121.50610350472425,582.5411376990378 L 121.50610337163569,582.5411375092558 L 120.5396730016153,581.2923585923292 L 120.53967284438627,581.2923584085315 L 120.53967261913589,581.2923583204126 L 118.38769556336132,580.5699463732759 L 118.38769531240717,580.5699463035614 L 118.38769506058004,580.5699463700536 L 116.2257082442254,581.2650145724319 L 116.22570801508628,581.2650146588674 L 116.22570785479967,581.2650148440244 L 115.26928725549476,582.4875486413491 L 115.2692871204474,582.4875488319416 L 115.269287109375,582.4875490652661 L 115.269287109375,596.6914060138081 L 115.26928712036037,596.6914062462298 z" style="fill: rgb(255, 255, 255);"/>
    <path fill-rule="evenodd" stroke="#555555" stroke-width="0" opacity="1" d="M 98.86804200437085,627.1684570313491 L 98.86804208918785,627.1684572484675 L 99.83349598535837,629.330444093211 L 99.8334961045697,629.3304443260799 L 99.8334963253637,629.3304444663971 L 101.53149391710306,630.2868651084732 L 101.53149414403349,630.2868652213787 L 101.53149439716582,630.286865234375 L 116.56372050730351,630.286865234375 L 116.56372070252435,630.2868652267264 L 116.56372089654967,630.2868652038273 L 118.16833468302195,630.0334473095164 L 118.1683352321679,630.0334471908075 L 119.39282199475869,629.6956787856545 L 119.39282225889498,629.6956786965565 L 119.39282249653522,629.6956785508384 L 120.44848610578354,628.9637452713456 L 120.44848631789631,628.9637451066083 L 120.44848648969267,628.9637449001697 L 121.08764634453252,628.1052247972116 L 121.08764647471017,628.1052246041015 L 121.08764656665123,628.1052243901283 L 121.55773918026689,626.8525392691406 L 121.5577392481516,626.8525390607174 L 121.55773925912001,626.8525388417921 L 121.65368652191373,610.6567385384614 L 121.65368651035347,610.6567382846082 L 121.65368639823113,610.6567380565648 L 120.68713391608269,608.9222414388777 L 120.68713377946804,608.92224122125 L 120.6871335525632,608.9222411006705 L 118.53527853592533,607.9189454130288 L 118.53527832021318,607.9189453246839 L 118.53527810309075,607.9189454095023 L 116.37329125835082,608.8843993056712 L 116.37329102548267,608.8843994248821 L 116.37329088516528,608.8843996456764 L 115.41687023968092,610.5823972434667 L 115.4168701294534,610.5823974642456 L 115.41687011372271,610.5823977105092 L 115.22998060559364,624.0441795961818 L 115.22998054483546,624.0441805667009 L 115.22998039010103,624.0441815267301 L 115.22998014285353,624.0441824671915 L 115.22997980543092,624.044183379192 L 115.22997938102385,624.0441842541077 L 115.22997887364554,624.0441850836654 L 115.22997828809373,624.044185860021 L 115.2299776299054,624.044186575833 L 115.22997690530438,624.044187224333 L 115.22997612114247,624.0441877993886 L 115.22997528483471,624.0441882955622 L 115.22997440428921,624.0441887081618 L 115.2299734878324,624.044189033286 L 115.22997254413028,624.0441892678605 L 115.22997158210649,624.044189409667 L 115.22997061085792,624.0441894573646 L 101.6058352149471,624.0500488280157 L 101.60583496425079,624.0500488408679 L 101.60583473904748,624.0500489517582 L 99.87133811859876,625.0164793651646 L 99.87133790094,625.0164795017844 L 99.87133778034955,625.0164797287182 L 98.8680420927096,627.1684568156393 L 98.86804200437085,627.1684570313491 z" style="fill: rgb(255, 255, 255);"/>
    <path fill-rule="evenodd" stroke="#555555" stroke-width="0" opacity="1" d="M 70.24951173183688,627.4133300782162 L 70.24951180288798,627.4133303136501 L 71.02185049982037,629.5753171417472 L 71.02185059671315,629.575317374617 L 71.02185079524823,629.575317530184 L 72.38024881439135,630.5317381340649 L 72.38024902751465,630.5317382683774 L 72.38024927910068,630.53173828125 L 88.16235326101645,630.53173828125 L 88.16235351159861,630.5317382684817 L 88.16235372417856,630.5317381351991 L 89.52807596230416,629.5753175295757 L 89.52807616113313,629.5753173745969 L 89.52807625863336,629.5753171421205 L 90.3073729621011,627.4133303133115 L 90.30737303379925,627.4133300781768 L 90.30737296023698,627.4133298436184 L 89.51232918912328,625.2613527760668 L 89.51232909112827,625.2613525471108 L 89.51232889456223,625.261352394188 L 88.13146993506015,624.2949220209225 L 88.13146972254212,624.2949218877567 L 88.13146947207217,624.294921875 L 72.43981958947911,624.294921875 L 72.43981933991275,624.2949218876632 L 72.43981912788632,624.2949220199056 L 71.05224630078366,625.2613523948656 L 71.05224610413175,625.2613525471154 L 71.05224600557118,625.261352775453 L 70.24951180616031,627.4133298437946 L 70.24951173183688,627.4133300782162 z" style="fill: rgb(255, 255, 255);"/>
  </g>
  <g transform="matrix(3.6090168952941895, 0, 0, 3.6090168952941895, 23.65670394897461, -1812.7225341796875)" style="">
    <path fill-rule="evenodd" stroke="#555555" stroke-width="0" opacity="1" d="M 46.40661622158765,602.0753173577583 L 46.40661638631342,602.0753172138027 L 63.77904982947707,585.3334988932008 L 63.77905055055733,585.3334982620612 L 63.77905132873792,585.3334977028395 L 63.77905215687288,585.333497220671 L 63.77905302735749,585.3334968199835 L 63.779053932198146,585.3334965044563 L 63.77905486308575,585.3334962769871 L 63.77905581147201,585.3334961396647 L 63.77905676864797,585.33349609375 L 88.87109350531655,585.33349609375 L 88.87109372438249,585.3334960830232 L 88.87109357831987,585.3334959194059 L 46.406616383744236,542.2100831833008 L 46.40661622177299,542.2100830342592 L 46.4066162109375,542.210083254101 L 46.4066162109375,602.0753171392528 L 46.40661622158765,602.0753173577583 z" style="fill: rgb(255, 255, 255);"/>
  </g>
</svg>