<?xml version="1.0" encoding="utf-8"?>
<!-- Generator: Adobe Illustrator 28.1.0, SVG Export Plug-In . SVG Version: 6.00 Build 0)  -->
<svg version="1.1" id="Layer_1" xmlns="http://www.w3.org/2000/svg" xmlns:xlink="http://www.w3.org/1999/xlink" x="0px" y="0px"
	 viewBox="0 0 800 800" style="enable-background:new 0 0 800 800;" xml:space="preserve">
<style type="text/css">
	.st0{fill-rule:evenodd;clip-rule:evenodd;fill:#FFFFFF;}
</style>
<path class="st0" d="M709.8,400c0-17.4-1.6-35.2-4.8-53l87.6-75.9l-83.1-142l-110.5,36.8c-27.9-23.2-59.7-41.4-93.3-53.5L482.9,0
	H317.1l-22.8,112.4c-33.9,12.1-65.2,30.1-93.3,53.5L90.6,129.1l-83.1,142L95.1,347c-3.2,17.8-4.8,35.6-4.8,53s1.6,35.2,4.8,53
	L7.5,528.9l83.1,142l110.5-36.8c27.9,23.2,59.7,41.4,93.3,53.5L317.1,800h165.7l22.8-112.4c33.9-12.1,65.2-30.1,93.3-53.5L709.4,671
	l83.1-142L704.9,453C708.2,435.2,709.8,417.4,709.8,400 M400,564.7c-90.8,0-164.7-73.9-164.7-164.7S309.2,235.3,400,235.3
	c90.8,0,164.7,73.9,164.7,164.7S490.8,564.7,400,564.7"/>
</svg>
