<?xml version="1.0" encoding="utf-8"?>
<svg viewBox="0 0 500 500" xmlns="http://www.w3.org/2000/svg">
  <desc>Outline to SVG export</desc>
  <g transform="matrix(1, 0, 0, 1, -135.027893, -421.878357)">
    <g/>
  </g>
  <g transform="matrix(1, 0, 0, 1, -135.027893, -421.878357)">
    <g/>
  </g>
  <g transform="matrix(1, 0, 0, 1, -135.027893, -421.878357)">
    <g/>
  </g>
  <g transform="matrix(1, 0, 0, 1, -135.027893, -421.878357)">
    <g/>
  </g>
  <g transform="matrix(1, 0, 0, 1, -135.027893, -421.878357)">
    <g/>
  </g>
  <g transform="matrix(1, 0, 0, 1, -135.027893, -421.878357)">
    <g/>
  </g>
  <desc>Outline to SVG export</desc>
  <g transform="matrix(1, 0, 0, 1, -98.62709, -166.427078)">
    <g/>
  </g>
  <g transform="matrix(1, 0, 0, 1, -98.62709, -166.427078)">
    <path fill-rule="evenodd" fill="#000000" stroke="#555555" stroke-width="0" opacity="1" d="M 4.948974630835381,1276.3226318364148 L 4.948974816636376,1276.3226319757027 L 13.541503717403245,1282.1169432320276 L 13.541503910842287,1282.1169433500284 L 13.541504122458699,1282.1169434310277 L 21.79382303554808,1284.8518065721437 L 21.793823244375442,1284.8518066313984 L 21.793823457569054,1284.8518066722713 L 27.13085909000673,1285.6359862862505 L 27.13085937550985,1285.6359863115242 L 27.13085966202554,1285.6359863038165 L 31.06433086019443,1285.3028564617844 L 31.064331247303315,1285.3028564137232 L 35.499755623879985,1284.5754394917465 L 35.499755856469164,1284.5754394421053 L 35.49975608326201,1284.5754393705283 L 40.38427711776394,1282.7734375833709 L 40.38427733818538,1282.7734374897634 L 40.38427753660457,1282.7734373556837 L 45.24316386936954,1279.1374513163978 L 45.24316405422319,1279.137451163627 L 45.24316420635466,1279.1374509782463 L 48.93664536556785,1274.1660158164616 L 48.93664549745809,1274.1660156200214 L 48.93664556853403,1274.1660153943396 L 50.446289005515915,1268.4313967008381 L 50.446289052424376,1268.4313964835837 L 50.44628904000425,1268.4313962616704 L 49.866088889542404,1262.6875002213103 L 49.866088857592814,1262.6875000027444 L 49.86608876913368,1262.6874998003423 L 47.43176281559309,1257.730713135541 L 47.431762683536704,1257.7307129000462 L 47.43176248277152,1257.7307127195156 L 43.325683781105255,1254.4250489789583 L 43.325683588759745,1254.4250488387968 L 43.32568335787387,1254.425048781079 L 37.71643090866598,1253.3062744628492 L 37.7164306634732,1253.3062744265453 L 37.71643041594546,1253.3062744395527 L 32.04748557082125,1253.8886718524745 L 32.04748535382802,1253.8886718844824 L 32.0474851458138,1253.8886719540521 L 27.738037377386892,1255.5444334907754 L 27.738037117018482,1255.5444336083733 L 27.738036871836766,1255.5444337550248 L 24.67199732572062,1257.626098459405 L 24.671996838200574,1257.626098836349 L 22.265503205536938,1259.7363278831106 L 22.265502692155547,1259.7363284046107 L 13.454956586558925,1270.1076653895325 L 13.454956030885146,1270.1076659917865 L 13.454955427767253,1270.1076665465225 L 9.1480718771478,1273.7548823144894 L 9.148071271697178,1273.7548827884686 L 9.14807063161833,1273.7548832145274 L 4.948974822645814,1276.3226317055223 L 4.948974630835381,1276.3226318364148 z"/>
    <path fill-rule="evenodd" fill="#000000" stroke="#555555" stroke-width="0" opacity="1" d="M 11.52380372047429,1290.4953611444175 L 11.523803720082077,1290.4953611697758 L 11.523803718133648,1290.4953612373822 L 11.523803719353579,1290.495361283684 L 11.523803719844755,1290.4953613242374 L 11.523803720041133,1290.4953613260143 L 11.523803722308685,1290.4953613361815 L 11.523803812081354,1290.4953614767587 L 13.913329944283735,1294.0068357408165 L 13.913329984188639,1294.006835793848 L 13.913330080374692,1294.0068359269605 L 13.91333021982627,1294.0068360571988 L 13.913330263991124,1294.006836099774 L 20.930908096783334,1300.1336668993438 L 20.930908145274536,1300.1336669357918 L 20.930908210137193,1300.1336669858392 L 20.930908260815343,1300.1336669946932 L 22.051513413314375,1300.235717749891 L 22.051513669562006,1300.2357177598647 L 22.051513908052648,1300.2357176655985 L 22.985351410083744,1299.8093262414684 L 22.985351465061083,1299.8093262114094 L 22.985351555237557,1299.809326163417 L 22.985351632868195,1299.8093260858718 L 22.985351679720363,1299.8093260400124 L 23.677245944201733,1299.0310060276036 L 23.677246085207244,1299.0310058546554 L 23.67724611887997,1299.031005690692 L 23.677246134649973,1299.0310056193155 L 24.025024375129817,1296.9897463222626 L 24.025024403027462,1296.9897460954824 L 24.025024306981976,1296.9897458881605 L 23.523315526786597,1296.026489444238 L 23.52331542771701,1296.0264892702717 L 23.52331542364666,1296.0264892628763 L 23.523315385470582,1296.0264892254347 L 18.026856567677964,1291.4903573522386 L 18.026855869349124,1291.4903567182482 L 18.02685523385731,1291.4903560212854 L 18.02685466685591,1291.4903552675503 L 15.86450208809397,1288.3144533232323 L 15.864502064709633,1288.314453292197 L 15.864501960960132,1288.3144531484063 L 15.864501945110277,1288.314453130402 L 15.864501785331921,1288.314453029407 L 15.86450174401406,1288.3144530024138 L 14.999511918616433,1287.807373164042 L 14.999511715538707,1287.807373057308 L 14.999511487591596,1287.8073730313738 L 13.98376485960586,1287.7392578266608 L 13.983764648266867,1287.7392578195042 L 13.983764532351179,1287.739257867479 L 12.119995348934363,1288.621948132431 L 12.119995331049607,1288.621948142053 L 12.119995122934736,1288.6219482482877 L 12.119995069266832,1288.621948319485 L 12.119995015891993,1288.6219483984055 L 11.577636861162478,1289.4583738038089 L 11.577636732067308,1289.4583740277558 L 11.57763670517956,1289.4583742848454 L 11.52380372047429,1290.4953611444175 z"/>
    <path fill-rule="evenodd" fill="#000000" stroke="#555555" stroke-width="0" opacity="1" d="M 30.1364746167874,1301.556762691781 L 30.136474642082337,1301.55676277446 L 30.136474677703536,1301.5567628727858 L 30.496337804196543,1302.4914548536397 L 30.496337899819924,1302.491455070314 L 30.496338098183937,1302.4914551997038 L 32.378173617117895,1303.5937498764015 L 32.37817368262707,1303.593749910588 L 32.37817382377905,1303.5937499870397 L 32.37817383182638,1303.593749990514 L 32.37817383325148,1303.5937499909624 L 32.37817402237215,1303.5937499950162 L 32.37817406739935,1303.5937499965157 L 39.26892064963761,1303.493408206748 L 39.26892074637423,1303.4934082005177 L 39.26892107470142,1303.4934081847855 L 39.26892115054069,1303.4934081824001 L 44.84765605249064,1303.0347900552995 L 44.847656216553204,1303.0347900362447 L 44.84765624612029,1303.034790033343 L 44.847656246555864,1303.0347900332126 L 44.84765627611571,1303.0347900132242 L 44.84765629625192,1303.0347900000202 L 45.75170878216371,1302.372802882443 L 45.75170897447944,1302.3728027262382 L 45.751709090583695,1302.372802507366 L 46.19152825320212,1301.4327394012532 L 46.19152829207413,1301.4327393001201 L 46.191528303262785,1301.432739271898 L 46.191528308078304,1301.432739255677 L 46.1915283080057,1301.4327392478035 L 46.19152828421663,1301.4327390240915 L 45.876464880730055,1299.3927004347588 L 45.87646487778841,1299.392700420371 L 45.87646483876018,1299.3927002051169 L 45.87646483394599,1299.3927001955778 L 45.87646483369051,1299.3927001951654 L 45.87646479164596,1299.3927001401591 L 45.87646472226887,1299.3927000586436 L 45.18225113633749,1298.611694515688 L 45.182250969876144,1298.6116943456339 L 45.182250751761146,1298.6116942504827 L 44.15112324664302,1298.2197266384387 L 44.15112312381537,1298.2197265973996 L 44.15112304457041,1298.2197265694235 L 44.151123003301244,1298.2197265673283 L 38.57885766824454,1298.4290771391813 L 38.57885717535105,1298.4290771455417 L 32.09423834763418,1298.3529052742174 L 32.09423828495503,1298.3529052761214 L 32.09423823665108,1298.3529052922574 L 31.160156468134552,1298.7470702204514 L 31.160156256776638,1298.747070321678 L 31.16015609782732,1298.7470704938798 L 30.50634769631159,1299.5263671397493 L 30.506347685970063,1299.526367152472 L 30.50634765849547,1299.5263671908517 L 30.506347651110612,1299.5263672220387 L 30.506347638003287,1299.5263672876642 L 30.136474654789726,1301.5567624460111 L 30.136474654604687,1301.5567624474318 L 30.1364746167874,1301.556762691781 z"/>
    <path fill-rule="evenodd" fill="#000000" stroke="#555555" stroke-width="0" opacity="1" d="M 43.77050783088825,1249.641357418397 L 43.77050803190705,1249.6413575293786 L 46.071532777086055,1250.7687986193773 L 46.07153360748789,1250.76879907627 L 48.30419850479359,1252.1389155774923 L 48.30419919800374,1252.1389160438425 L 48.30419984986595,1252.1389165664307 L 50.36474546909115,1253.9372553142048 L 50.36474606912962,1253.937255883273 L 50.3647466200961,1253.9372564999749 L 52.09680121963091,1256.045287430933 L 52.096801728273995,1256.0452881062863 L 52.09680217805108,1256.0452888221917 L 53.38439917446794,1258.30114704117 L 53.384399612057344,1258.301147901855 L 54.42211903732308,1260.6120603168304 L 54.42211914526151,1260.6120605280184 L 54.42211933882442,1260.6120603909658 L 59.94519023680349,1256.2674562064155 L 59.945190331717946,1256.2674561239041 L 59.945190490865464,1256.2674559884472 L 59.945190608027666,1256.2674558908182 L 72.06762691544188,1245.1286621440004 L 72.06762699009155,1245.1286620739852 L 82.79968253364754,1234.8543701971641 L 82.79968269693971,1234.8543700334335 L 87.65551749070949,1229.754882904302 L 87.65551766077623,1229.754882716385 L 92.24987788933272,1224.4121094219286 L 92.24987796886643,1224.4121093270892 L 96.72912593331296,1218.9345703653885 L 96.72912601835077,1218.9345702584492 L 100.35156242972789,1214.2491455987056 L 100.35156256602295,1214.2491454137862 L 102.90466298353846,1210.6131593255186 L 102.9046631776919,1210.6131590269354 L 104.53430164503692,1207.9001466721231 L 104.53430174918364,1207.9001464801715 L 104.53430183613956,1207.9001462798442 L 105.84399404596934,1204.4802248565438 L 105.84399412661396,1204.4802246071995 L 105.84399412537556,1204.4802243451413 L 105.73364259088147,1202.568115455412 L 105.7336425685551,1202.568115237117 L 105.7336424719027,1202.5681150401142 L 105.07189953937716,1201.3579103854272 L 105.0718994039738,1201.3579101658684 L 105.07189919112822,1201.3579100201414 L 103.89904804277128,1200.6418458198643 L 103.89904784831558,1200.6418457127904 L 103.89904762865353,1200.6418456807276 L 102.00866725960196,1200.4519043237442 L 102.00866699386273,1200.4519043114044 L 102.00866673790934,1200.4519043839064 L 98.57055685206336,1201.6286620370063 L 98.5705566446919,1201.6286621185036 L 98.57055644542397,1201.6286622181847 L 95.82617203530077,1203.1584471762696 L 95.82617172168246,1203.1584473664964 L 92.13952646566453,1205.5839843102094 L 92.13952627187604,1205.5839844443583 L 87.3741455596354,1209.0517577747885 L 87.37414545697185,1209.051757851529 L 81.76635745329092,1213.356689429008 L 81.7663573908452,1213.3566894777368 L 76.2327881691201,1217.7457274730848 L 76.2327880056292,1217.7457276085138 L 70.90185555737209,1222.355956954609 L 70.90185538381618,1222.3559571119577 L 60.12463385450372,1232.5969237659401 L 60.12463372590782,1232.5969238926327 L 48.57006843174074,1244.3990477776463 L 48.5700682896363,1244.3990479277345 L 43.77050797749019,1249.6413572416648 L 43.77050783088825,1249.641357418397 z"/>
    <path fill-rule="evenodd" fill="#000000" stroke="#555555" stroke-width="0" opacity="1" d="M 72.1618652448766,1286.8237303484973 L 72.1618652431967,1286.8237304657634 L 72.16186524309131,1286.823730469733 L 72.16186526994946,1286.8237305400723 L 72.16186531073305,1286.823730632356 L 73.03491201387368,1288.694335732877 L 73.03491209642387,1288.694335899571 L 73.03491211437093,1288.694335931689 L 73.03491216335816,1288.6943359698867 L 73.03491228319844,1288.694336054051 L 73.87036111798054,1289.2545164606577 L 73.87036133245289,1289.254516589239 L 73.8703615802263,1289.254516622979 L 74.90063467981513,1289.3420410083352 L 74.90063472271272,1289.3420410094263 L 74.9006347629211,1289.342041011321 L 74.90063493395448,1289.3420409271598 L 78.14733826734937,1287.6357425027438 L 78.14733950407242,1287.63574195606 L 85.47167953284215,1284.9741211499518 L 85.47167961722164,1284.9741211122055 L 85.4716796765305,1284.9741210864452 L 85.47167967885359,1284.9741210844852 L 85.47167977286217,1284.974120987416 L 85.47167981016663,1284.974120948897 L 87.03161605122764,1283.166382021018 L 87.03161612561122,1283.16638192578 L 87.0316161970954,1283.1663818365635 L 87.03161619996932,1283.1663818321817 L 87.03161620259377,1283.16638180364 L 87.03161621135179,1283.166381712929 L 87.03161622362602,1283.1663815915822 L 87.08508299488226,1282.1367189990106 L 87.08508299537917,1282.1367187531387 L 87.08508287824327,1282.1367185369625 L 86.01293958011435,1280.3739015759832 L 86.01293949975175,1280.3739014573189 L 86.0129394440802,1280.37390137356 L 86.01293929683438,1280.3739012932851 L 86.0129392365685,1280.3739012596268 L 85.07360860925245,1279.9073487375213 L 85.07360839591495,1279.907348643801 L 85.07360816306242,1279.9073486350935 L 83.97778344578397,1279.9179687476483 L 83.97778336626048,1279.917968752283 L 83.9777832217895,1279.9179687582537 L 83.97778320597321,1279.917968760384 L 83.97778316625035,1279.9179687739966 L 83.97778306787397,1279.9179688070499 L 76.13757337845009,1283.0708007264539 L 76.13757337713926,1283.0708007271107 L 76.13757311201552,1283.0708008546853 L 72.79748553145869,1284.9550780235134 L 72.79748550252471,1284.9550780413922 L 72.79748543155137,1284.9550780828256 L 72.79748535486411,1284.9550781335997 L 72.79748524681865,1284.9550782931324 L 72.79748522149376,1284.9550783288923 L 72.25012219961017,1285.8131101488789 L 72.25012208145698,1285.8131103553483 L 72.25012204939695,1285.8131105910643 L 72.1618652448766,1286.8237303484973 z"/>
    <path fill-rule="evenodd" fill="#000000" stroke="#555555" stroke-width="0" opacity="1" d="M 52.36755372506852,1296.7745361308023 L 52.367553815176684,1296.774536375631 L 53.1820067471159,1298.6717527227831 L 53.18200684405035,1298.671752923185 L 53.182007018538684,1298.6717530614299 L 53.99938945752444,1299.261474471636 L 53.99938965179646,1299.26147459834 L 53.99938988371136,1299.2614746013633 L 56.16455050587829,1299.1877441500023 L 56.16455077737981,1299.1877441257386 L 56.164551026303755,1299.1877440146704 L 66.54553200482833,1293.8520508952186 L 66.54553221816676,1293.8520507717553 L 66.54553236681967,1293.8520505751367 L 67.17468247652651,1292.9274904410818 L 67.17468260520086,1292.927490230033 L 67.17468264154174,1292.9274899855382 L 67.27575681197247,1291.894775635485 L 67.27575682370595,1291.8947753930743 L 67.27575671954324,1291.8947751738679 L 66.2990723789252,1290.0759279453703 L 66.29907225723636,1290.0759277426757 L 66.29907205583496,1290.0759276188562 L 65.38305685164971,1289.5715333193236 L 65.38305663755825,1289.571533214539 L 65.38305639978006,1289.5715331979163 L 64.27673363318162,1289.5476074269516 L 64.27673340081034,1289.5476074328387 L 64.27673318679497,1289.5476075235604 L 53.07629417730268,1294.9289549666632 L 53.0762939540793,1294.9289550884246 L 53.076293798237074,1294.9289552893385 L 52.49182142777413,1295.7683103476727 L 52.49182130027248,1295.7683105511658 L 52.49182125931047,1295.7683107877847 L 52.36755374332577,1296.7745358705565 L 52.36755372506852,1296.7745361308023 z"/>
    <path fill-rule="evenodd" fill="#000000" stroke="#555555" stroke-width="0" opacity="1" d="M 93.53417969086259,1281.9306638386627 L 93.53417969230834,1281.9306640198877 L 93.53417969459528,1281.930664059467 L 93.53417972302219,1281.9306641173316 L 93.53417979194657,1281.9306642415333 L 94.04101549741561,1282.7994382578684 L 94.04101563428743,1282.7994384673523 L 94.04101584262557,1282.7994386059543 L 94.92980949360944,1283.3278808137704 L 94.92980952869588,1283.3278808318532 L 94.92980956928322,1283.327880853898 L 94.92980977134823,1283.327880852526 L 98.5129392088152,1283.2058105551982 L 98.51293924858248,1283.2058105518925 L 98.5129394552595,1283.2058105387703 L 98.51293964324162,1283.205810508351 L 98.51293968962737,1283.2058105018066 L 100.8875729996822,1282.7532959446498 L 100.88757315893776,1282.7532959060707 L 100.88757323810293,1282.7532958873073 L 100.88757326379057,1282.7532958786474 L 100.88757346887338,1282.753295809509 L 102.4409177411826,1282.143920987712 L 102.4409178505975,1282.1439209384914 L 102.44091795611742,1282.1439208926026 L 102.44091796080703,1282.143920890009 L 102.44091797641832,1282.1439208660138 L 102.44091802696494,1282.1439207890985 L 102.44091809393255,1282.1439206882105 L 102.80944811459307,1281.52502462834 L 102.80944822972084,1281.5250244110396 L 102.80944822690185,1281.525024165143 L 102.72106935091436,1280.0858156735787 L 102.72106933514571,1280.0858155310348 L 102.72106932496612,1280.0858154311006 L 102.72106923193863,1280.085815291118 L 102.72106919452962,1280.0858152335607 L 102.29235853616777,1279.4912111285262 L 102.29235839107565,1279.491210946054 L 102.29235818902848,1279.4912108297547 L 101.61145041108631,1279.1408692516452 L 101.61145036639248,1279.1408692313273 L 101.61145019134197,1279.1408691476893 L 101.61145001412298,1279.1408690832175 L 101.61144996607457,1279.1408690646808 L 98.86340354772936,1278.230468825341 L 98.86340335422206,1278.2304687713681 L 98.86340333248458,1278.230468765085 L 98.86340331917506,1278.2304687625158 L 98.86340312006809,1278.230468764378 L 98.86340307062926,1278.2304687648405 L 94.95300312991282,1278.4628906130993 L 94.95300305209612,1278.4628906206472 L 94.95300299365537,1278.4628906249864 L 94.95300293508906,1278.4628906326354 L 94.95300292919708,1278.4628906340195 L 94.95300276224802,1278.4628907304339 L 94.95300272365546,1278.4628907516594 L 94.08605977504477,1278.9958494835146 L 94.0860595786795,1278.9958496176407 L 94.08605944695128,1278.9958498156227 L 93.56518560856784,1279.8666991156058 L 93.56518555662797,1279.866699218861 L 93.56518555425038,1279.866699223446 L 93.56518554787102,1279.866699296548 L 93.56518554413249,1279.866699401311 L 93.53417969086259,1281.9306638386627 z"/>
  </g>
  <g transform="matrix(1, 0, 0, 1, -98.62709, -166.427078)">
    <g/>
  </g>
  <g transform="matrix(1, 0, 0, 1, -98.62709, -166.427078)">
    <g/>
  </g>
  <g transform="matrix(1, 0, 0, 1, -98.62709, -166.427078)">
    <g/>
  </g>
  <g transform="matrix(1, 0, 0, 1, -98.62709, -166.427078)">
    <g/>
  </g>
  <g transform="matrix(1, 0, 0, 1, -98.62709, -166.427078)">
    <g/>
  </g>
  <desc>Outline to SVG export</desc>
  <g transform="matrix(1, 0, 0, 1, -231.048782, -711.399597)">
    <g/>
  </g>
  <g transform="matrix(1, 0, 0, 1, -231.048782, -711.399597)">
    <g/>
  </g>
  <g transform="matrix(1, 0, 0, 1, -231.048782, -711.399597)">
    <g/>
  </g>
  <g transform="matrix(1, 0, 0, 1, -231.048782, -711.399597)">
    <g/>
  </g>
  <g transform="matrix(1, 0, 0, 1, -231.048782, -711.399597)">
    <g/>
  </g>
  <g transform="matrix(1, 0, 0, 1, -231.048782, -711.399597)">
    <g/>
  </g>
  <g transform="matrix(3.998137, 0, 0, 3.998137, -1357.00647, -1356.907104)">
    <path fill-rule="evenodd" stroke="#555555" stroke-width="0" opacity="1" d="M 419.7634277458702,397.8757324333702 L 419.763427734375,397.87573266736115 L 419.763427734375,405.95214819201385 L 419.7634277458702,405.9521484260048 L 419.76342797986115,405.9521484375 L 435.63293432482635,405.9521484375 L 435.6329345588173,405.9521484260048 L 435.6329345703125,405.95214819201385 L 435.6329345703125,397.87573266736115 L 435.6329345588173,397.8757324333702 L 435.63293432482635,397.875732421875 L 419.76342797986115,397.875732421875 L 419.7634277458702,397.8757324333702 z" style="fill: rgb(255, 255, 255);"/>
    <path fill-rule="evenodd" stroke="#555555" stroke-width="0" opacity="1" d="M 440.86657715962855,385.5626220916802 L 440.8665771484375,385.5626223177137 L 440.8665771484375,418.2652585416613 L 440.86657715962855,418.2652587676948 L 440.8665773518006,418.2652586481698 L 464.4678953094857,401.91394056709106 L 464.46789548868935,401.9139404296875 L 464.4678953094857,401.91394029228394 L 440.8665773518006,385.5626222112052 L 440.86657715962855,385.5626220916802 z" style="fill: rgb(255, 255, 255);"/>
  </g>
  <g transform="matrix(3.998137, 0, 0, 3.998137, -1357.00647, -1356.907104)">
    <path fill-rule="evenodd" stroke="#555555" stroke-width="0" opacity="1" d="M 397.9005127068077,419.7385254021202 L 397.9005126953125,419.73852563611115 L 397.9005126953125,435.60815405138885 L 397.9005127068077,435.6081542853798 L 397.90051294079865,435.608154296875 L 405.97692846545135,435.608154296875 L 405.9769286994423,435.6081542853798 L 405.9769287109375,435.60815405138885 L 405.9769287109375,419.73852563611115 L 405.9769286994423,419.7385254021202 L 405.97692846545135,419.738525390625 L 397.90051294079865,419.738525390625 L 397.9005127068077,419.7385254021202 z" style="fill: rgb(255, 255, 255);"/>
    <path fill-rule="evenodd" stroke="#555555" stroke-width="0" opacity="1" d="M 385.5874023651178,440.8416748158786 L 385.58740248464295,440.84167500805086 L 401.9387205657218,464.4429929657362 L 401.93872070312506,464.4429931449394 L 401.93872084052873,464.44299296573644 L 418.29003892160733,440.8417970783619 L 418.2900390411324,440.84179688619093 L 418.2900388150985,440.8417968749991 L 385.5874025911519,440.8416748046884 L 385.5874023651178,440.8416748158786 z" style="fill: rgb(255, 255, 255);"/>
  </g>
  <g transform="matrix(3.998137, 0, 0, 3.998137, -1357.00647, -1356.907104)">
    <path fill-rule="evenodd" stroke="#555555" stroke-width="0" opacity="1" d="M 339.40966798787315,401.9139404296875 L 339.4096681670768,401.91394056709106 L 363.0109861247619,418.2652586481698 L 363.01098631693395,418.2652587676948 L 363.010986328125,418.2652585416613 L 363.010986328125,385.5626223177137 L 363.01098631693395,385.5626220916802 L 363.0109861247619,385.5626222112052 L 339.4096681670768,401.91394029228394 L 339.40966798787315,401.9139404296875 z" style="fill: rgb(255, 255, 255);"/>
    <path fill-rule="evenodd" stroke="#555555" stroke-width="0" opacity="1" d="M 368.2445068474327,397.8757324333702 L 368.2445068359375,397.87573266736115 L 368.2445068359375,405.95214819201385 L 368.2445068474327,405.9521484260048 L 368.24450708142365,405.9521484375 L 384.11401342638885,405.9521484375 L 384.1140136603798,405.9521484260048 L 384.114013671875,405.95214819201385 L 384.114013671875,397.87573266736115 L 384.1140136603798,397.8757324333702 L 384.11401342638885,397.875732421875 L 368.24450708142365,397.875732421875 L 368.2445068474327,397.8757324333702 z" style="fill: rgb(255, 255, 255);"/>
  </g>
  <g transform="matrix(3.998137, 0, 0, 3.998137, -1357.00647, -1356.907104)">
    <path fill-rule="evenodd" stroke="#555555" stroke-width="0" opacity="1" d="M 385.58740236511755,362.9862060434965 L 385.58740259115024,362.9862060546875 L 418.29003881509976,362.9862060546875 L 418.29003904113245,362.9862060434965 L 418.2900389216081,362.98620585132454 L 401.9387208405283,339.3847658233274 L 401.938720703125,339.38476564412326 L 401.9387205657217,339.3847658233274 L 385.5874024846419,362.98620585132454 L 385.58740236511755,362.9862060434965 z" style="fill: rgb(255, 255, 255);"/>
    <path fill-rule="evenodd" stroke="#555555" stroke-width="0" opacity="1" d="M 397.9005127068077,368.2197265739952 L 397.9005126953125,368.21972680798615 L 397.9005126953125,384.08923315295135 L 397.9005127068077,384.0892333869423 L 397.90051294079865,384.0892333984375 L 405.97692846545135,384.0892333984375 L 405.9769286994423,384.0892333869423 L 405.9769287109375,384.08923315295135 L 405.9769287109375,368.21972680798615 L 405.9769286994423,368.2197265739952 L 405.97692846545135,368.2197265625 L 397.90051294079865,368.2197265625 L 397.9005127068077,368.2197265739952 z" style="fill: rgb(255, 255, 255);"/>
  </g>
</svg>