<?xml version="1.0" encoding="utf-8"?>
<svg viewBox="0 0 500 500" xmlns="http://www.w3.org/2000/svg">
    <g
        transform="matrix(3.6090168952941895, 0, 0, 3.6090168952941895, -1200.6038818359375, -1200.5140380859375)"
        style="">
        <path fill-rule="evenodd" stroke="#555555" stroke-width="0" opacity="1"
            d="M 419.7634277458702,397.8757324333702 L 419.763427734375,397.87573266736115 L 419.763427734375,405.95214819201385 L 419.7634277458702,405.9521484260048 L 419.76342797986115,405.9521484375 L 435.63293432482635,405.9521484375 L 435.6329345588173,405.9521484260048 L 435.6329345703125,405.95214819201385 L 435.6329345703125,397.87573266736115 L 435.6329345588173,397.8757324333702 L 435.63293432482635,397.875732421875 L 419.76342797986115,397.875732421875 L 419.7634277458702,397.8757324333702 z"
            style="fill: rgb(255, 255, 255);" />
        <path fill-rule="evenodd" stroke="#555555" stroke-width="0" opacity="1"
            d="M 440.86657715962855,385.5626220916802 L 440.8665771484375,385.5626223177137 L 440.8665771484375,418.2652585416613 L 440.86657715962855,418.2652587676948 L 440.8665773518006,418.2652586481698 L 464.4678953094857,401.91394056709106 L 464.46789548868935,401.9139404296875 L 464.4678953094857,401.91394029228394 L 440.8665773518006,385.5626222112052 L 440.86657715962855,385.5626220916802 z"
            style="fill: rgb(255, 255, 255);" />
    </g>
    <g
        transform="matrix(3.6090168952941895, 0, 0, 3.6090168952941895, -1200.6038818359375, -1200.5140380859375)"
        style="">
        <path fill-rule="evenodd" stroke="#555555" stroke-width="0" opacity="1"
            d="M 397.9005127068077,419.7385254021202 L 397.9005126953125,419.73852563611115 L 397.9005126953125,435.60815405138885 L 397.9005127068077,435.6081542853798 L 397.90051294079865,435.608154296875 L 405.97692846545135,435.608154296875 L 405.9769286994423,435.6081542853798 L 405.9769287109375,435.60815405138885 L 405.9769287109375,419.73852563611115 L 405.9769286994423,419.7385254021202 L 405.97692846545135,419.738525390625 L 397.90051294079865,419.738525390625 L 397.9005127068077,419.7385254021202 z"
            style="fill: rgb(255, 255, 255);" />
        <path fill-rule="evenodd" stroke="#555555" stroke-width="0" opacity="1"
            d="M 385.5874023651178,440.8416748158786 L 385.58740248464295,440.84167500805086 L 401.9387205657218,464.4429929657362 L 401.93872070312506,464.4429931449394 L 401.93872084052873,464.44299296573644 L 418.29003892160733,440.8417970783619 L 418.2900390411324,440.84179688619093 L 418.2900388150985,440.8417968749991 L 385.5874025911519,440.8416748046884 L 385.5874023651178,440.8416748158786 z"
            style="fill: rgb(255, 255, 255);" />
    </g>
    <g
        transform="matrix(3.6090168952941895, 0, 0, 3.6090168952941895, -1200.6038818359375, -1200.5140380859375)"
        style="">
        <path fill-rule="evenodd" stroke="#555555" stroke-width="0" opacity="1"
            d="M 339.40966798787315,401.9139404296875 L 339.4096681670768,401.91394056709106 L 363.0109861247619,418.2652586481698 L 363.01098631693395,418.2652587676948 L 363.010986328125,418.2652585416613 L 363.010986328125,385.5626223177137 L 363.01098631693395,385.5626220916802 L 363.0109861247619,385.5626222112052 L 339.4096681670768,401.91394029228394 L 339.40966798787315,401.9139404296875 z"
            style="fill: rgb(255, 255, 255);" />
        <path fill-rule="evenodd" stroke="#555555" stroke-width="0" opacity="1"
            d="M 368.2445068474327,397.8757324333702 L 368.2445068359375,397.87573266736115 L 368.2445068359375,405.95214819201385 L 368.2445068474327,405.9521484260048 L 368.24450708142365,405.9521484375 L 384.11401342638885,405.9521484375 L 384.1140136603798,405.9521484260048 L 384.114013671875,405.95214819201385 L 384.114013671875,397.87573266736115 L 384.1140136603798,397.8757324333702 L 384.11401342638885,397.875732421875 L 368.24450708142365,397.875732421875 L 368.2445068474327,397.8757324333702 z"
            style="fill: rgb(255, 255, 255);" />
    </g>
    <g
        transform="matrix(3.6090168952941895, 0, 0, 3.6090168952941895, -1200.6038818359375, -1200.5140380859375)"
        style="">
        <path fill-rule="evenodd" stroke="#555555" stroke-width="0" opacity="1"
            d="M 385.58740236511755,362.9862060434965 L 385.58740259115024,362.9862060546875 L 418.29003881509976,362.9862060546875 L 418.29003904113245,362.9862060434965 L 418.2900389216081,362.98620585132454 L 401.9387208405283,339.3847658233274 L 401.938720703125,339.38476564412326 L 401.9387205657217,339.3847658233274 L 385.5874024846419,362.98620585132454 L 385.58740236511755,362.9862060434965 z"
            style="fill: rgb(255, 255, 255);" />
        <path fill-rule="evenodd" stroke="#555555" stroke-width="0" opacity="1"
            d="M 397.9005127068077,368.2197265739952 L 397.9005126953125,368.21972680798615 L 397.9005126953125,384.08923315295135 L 397.9005127068077,384.0892333869423 L 397.90051294079865,384.0892333984375 L 405.97692846545135,384.0892333984375 L 405.9769286994423,384.0892333869423 L 405.9769287109375,384.08923315295135 L 405.9769287109375,368.21972680798615 L 405.9769286994423,368.2197265739952 L 405.97692846545135,368.2197265625 L 397.90051294079865,368.2197265625 L 397.9005127068077,368.2197265739952 z"
            style="fill: rgb(255, 255, 255);" />
    </g>
</svg>