<?xml version="1.0" encoding="utf-8"?>
<svg viewBox="0 0 500 500" xmlns="http://www.w3.org/2000/svg">
  <g transform="matrix(3.6090168952941895, 0, 0, 3.6090168952941895, -5.818548202514648, -1195.46826171875)" style="">
    <path fill-rule="evenodd" stroke="#555555" stroke-width="0" opacity="1" d="M 20.87341309658767,411.713989232758 L 20.8734132613135,411.71398908880144 L 38.24572463415968,394.9721707682252 L 38.245725355241156,394.97217013708035 L 38.24572613342371,394.97216957785383 L 38.245726961561296,394.9721690956811 L 38.2457278320491,394.97216869499005 L 38.245728736893405,394.9721683794601 L 38.24572966778502,394.9721681519888 L 38.245730616175535,394.9721680146651 L 38.24573157335586,394.97216796875 L 63.33776831000301,394.97216796875 L 63.337768529070054,394.97216795802314 L 63.33776838300732,394.9721677944053 L 20.873413258743966,351.848755058301 L 20.873413096773,351.84875490925924 L 20.8734130859375,351.8487551291013 L 20.8734130859375,411.7139890142524 L 20.87341309658767,411.713989232758 z" style="fill: rgb(255, 255, 255);"/>
  </g>
  <g transform="matrix(3.6090168952941895, 0, 0, 3.6090168952941895, -5.818548202514648, -1195.46826171875)" style="">
    <path fill-rule="evenodd" stroke="#555555" stroke-width="0" opacity="1" d="M 76.76196291199294,394.70361327005895 L 76.7619631380271,394.70361328125 L 96.38366674478573,394.70361328125 L 96.38366697081973,394.70361327005895 L 96.38366685129459,394.70361307788704 L 86.57287611396573,380.5428468780135 L 86.57287597656244,380.5428466988104 L 86.57287583915829,380.5428468780125 L 76.76196303151912,394.70361307788784 L 76.76196291199294,394.70361327005895 z" style="fill: rgb(255, 255, 255);"/>
    <path fill-rule="evenodd" stroke="#555555" stroke-width="0" opacity="1" d="M 69.55383301930775,412.4398193474327 L 69.5538330078125,412.43981958142365 L 69.5538330078125,417.2857663560724 L 69.55383301930809,417.2857665900666 L 69.55383325330332,417.28576660155636 L 84.1500144138116,417.2854003908759 L 84.15001539399982,417.28540043900557 L 84.1500163647504,417.28540058298023 L 84.1500173167142,417.28540082141336 L 84.15001824072297,417.28540115200855 L 84.15001912787774,417.28540157158193 L 84.15001996963444,417.2854020760926 L 84.15002075788624,417.2854026606818 L 84.1500214850416,417.28540331971936 L 84.15002214409739,417.2854040468582 L 84.15002272870635,417.28540483509533 L 84.15002323323819,417.2854056768394 L 84.15002365283382,417.2854065639836 L 84.1500239834522,417.2854074879841 L 84.15002422190918,417.2854084399419 L 84.15002436590822,417.2854094106889 L 84.1500244140625,417.2854103908759 L 84.1500244140625,431.88195776232635 L 84.15002442555775,431.8819579963173 L 84.15002465954866,431.8819580078125 L 88.99584936388884,431.8819580078125 L 88.99584959787975,431.8819579963173 L 88.995849609375,431.88195776232635 L 88.995849609375,417.2854103908759 L 88.99584965752928,417.2854094106889 L 88.99584980152832,417.2854084399419 L 88.9958500399853,417.2854074879841 L 88.99585037060368,417.2854065639836 L 88.99585079019931,417.2854056768394 L 88.99585129473115,417.28540483509533 L 88.99585187934011,417.2854040468582 L 88.9958525383959,417.28540331971936 L 88.99585326555126,417.2854026606818 L 88.99585405380306,417.2854020760926 L 88.99585489555976,417.28540157158193 L 88.99585578271453,417.28540115200855 L 88.9958567067233,417.28540082141336 L 88.9958576586871,417.28540058298023 L 88.99585862943768,417.28540043900557 L 88.9958596096259,417.2854003908759 L 103.59204077013418,417.28576660155636 L 103.59204100412941,417.2857665900666 L 103.592041015625,417.2857663560724 L 103.592041015625,412.4398195814289 L 103.5920410041293,412.4398193474336 L 103.59204077013263,412.4398193359457 L 88.99573753939703,412.440307616853 L 88.99573655920321,412.440307568731 L 88.99573558844637,412.4403074247629 L 88.99573463647583,412.44030718633525 L 88.99573371245998,412.4403068557443 L 88.99573282529796,412.44030643617407 L 88.99573198353401,412.4403059316653 L 88.99573119527511,412.4403053470769 L 88.99573046811297,412.4403046880391 L 88.99572980905081,412.440303960899 L 88.99572922443608,412.44030317265964 L 88.99572871989913,412.4403023309126 L 88.99572830029918,412.4403014437646 L 88.99572796967735,412.4403005197598 L 88.99572773121785,412.44029956779724 L 88.99572758721729,412.4402985970452 L 88.9957275390625,412.440297616853 L 88.9957275390625,397.84375024548615 L 88.99572752756725,397.8437500114952 L 88.99572729357634,397.84375 L 84.14990258924139,397.84375 L 84.14990235524608,397.8437500114957 L 84.14990234375821,397.8437502454915 L 84.15039062466546,412.439809335603 L 84.15039057654347,412.4398103157968 L 84.15039043257538,412.43981128655366 L 84.15039019414773,412.4398122385242 L 84.15038986355681,412.4398131625401 L 84.15038944398653,412.4398140497021 L 84.15038893947775,412.439814891466 L 84.15038835488937,412.4398156797249 L 84.15038769585155,412.4398164068871 L 84.15038696871144,412.4398170659492 L 84.15038618047211,412.43981765056395 L 84.15038533872503,412.4398181551009 L 84.15038445157707,412.43981857470084 L 84.15038352757227,412.4398189053227 L 84.15038257560971,412.4398191437822 L 84.15038160485769,412.43981928778277 L 84.15038062466547,412.4398193359375 L 69.55383325329866,412.4398193359375 L 69.55383301930775,412.4398193474327 z" style="fill: rgb(255, 255, 255);"/>
    <path fill-rule="evenodd" stroke="#555555" stroke-width="0" opacity="1" d="M 106.732177745566,405.0520019744927 L 106.732177734375,405.05200220052586 L 106.732177734375,424.67358373697414 L 106.732177745566,424.6735839630073 L 106.73217793773767,424.6735838434823 L 120.89294413761056,414.8627931061539 L 120.89294431681435,414.86279296875 L 120.89294413761056,414.8627928313461 L 106.73217793773767,405.0520020940177 L 106.732177745566,405.0520019744927 z" style="fill: rgb(255, 255, 255);"/>
    <path fill-rule="evenodd" stroke="#555555" stroke-width="0" opacity="1" d="M 52.25292970662311,414.86279296875 L 52.25292988582648,414.86279310615356 L 66.41369608569983,424.6735838434823 L 66.4136962778715,424.6735839630073 L 66.4136962890625,424.67358373697414 L 66.4136962890625,405.05200220052586 L 66.4136962778715,405.0520019744927 L 66.41369608569983,405.0520020940177 L 52.25292988582648,414.86279283134644 L 52.25292970662311,414.86279296875 z" style="fill: rgb(255, 255, 255);"/>
    <path fill-rule="evenodd" stroke="#555555" stroke-width="0" opacity="1" d="M 76.76208498230527,435.02209473775355 L 76.76208510183041,435.02209492992546 L 86.57287583915894,449.18286112979854 L 86.5728759765625,449.1828613090019 L 86.57287611396606,449.18286112979854 L 96.38366685129459,435.02209492992546 L 96.38366697081973,435.02209473775355 L 96.38366674478573,435.0220947265625 L 76.76208520833927,435.0220947265625 L 76.76208498230527,435.02209473775355 z" style="fill: rgb(255, 255, 255);"/>
  </g>
</svg>