<?xml version="1.0" encoding="utf-8"?>
<!-- Generator: Adobe Illustrator 28.1.0, SVG Export Plug-In . SVG Version: 6.00 Build 0)  -->
<svg version="1.1" id="Layer_1" xmlns="http://www.w3.org/2000/svg" xmlns:xlink="http://www.w3.org/1999/xlink" x="0px" y="0px"
	 viewBox="0 0 20 20" style="enable-background:new 0 0 20 20;" xml:space="preserve">
<style type="text/css">
	.st0{fill:#FFFFFF;}
</style>
<path class="st0" d="M19.9,9.5c-2.2-2.3-4.8-6.5-9.9-6.5S2.3,7.2,0.1,9.5C0,9.8,0,10.2,0.1,10.5c2,2.2,4.8,6.5,9.9,6.5
	s7.7-4.2,9.9-6.5C20,10.2,20,9.8,19.9,9.5z M10,15.4c-2.9,0-5.4-2.5-5.4-5.4S7.1,4.6,10,4.6s5.4,2.5,5.4,5.4S12.9,15.4,10,15.4z"/>
<ellipse class="st0" cx="10" cy="10" rx="2.3" ry="2.3"/>
</svg>
