<?xml version="1.0" encoding="utf-8"?>
<!-- Generator: Adobe Illustrator 28.1.0, SVG Export Plug-In . SVG Version: 6.00 Build 0)  -->
<svg version="1.1" xmlns="http://www.w3.org/2000/svg" xmlns:xlink="http://www.w3.org/1999/xlink" x="0px" y="0px"
	 viewBox="0 0 20 20" style="enable-background:new 0 0 20 20;" xml:space="preserve">
<style type="text/css">
	.st0{fill:#757575;}
</style>
<g id="Layer_1">
</g>
<g id="Layer_2">
	<path class="st0" d="M11.1,8c-0.3-0.2-0.7-0.3-1.1-0.3c-1.3,0-2.3,1-2.3,2.3c0,0.4,0.1,0.8,0.3,1.1L11.1,8z"/>
	<g>
		<path class="st0" d="M4.3,14.8l1.5-1.5C5,12.4,4.6,11.2,4.6,10c0-2.9,2.5-5.4,5.4-5.4c1.2,0,2.4,0.4,3.3,1.1l1.3-1.3
			c-1.3-0.8-2.8-1.3-4.6-1.3c-5.1,0-7.7,4.2-9.9,6.5C0,9.8,0,10.2,0.1,10.5C1.2,11.6,2.5,13.4,4.3,14.8z"/>
		<path class="st0" d="M19.9,9.5c-0.8-0.9-1.7-2-2.8-3.1l-1.9,1.9c0.2,0.5,0.3,1.1,0.3,1.7c0,2.9-2.5,5.4-5.4,5.4
			c-0.6,0-1.1-0.1-1.7-0.3l-1.3,1.3c0.9,0.3,1.9,0.5,2.9,0.5c5.1,0,7.7-4.2,9.9-6.5C20,10.2,20,9.8,19.9,9.5z"/>
	</g>
</g>
<g id="Layer_3">
	<path class="st0" d="M17.4,1.9l0.7,0.7c0.4,0.4,0.4,1.1,0,1.5L4.2,18.1c-0.4,0.4-1.1,0.4-1.5,0l-0.7-0.7c-0.4-0.4-0.4-1.1,0-1.5
		L15.8,1.9C16.3,1.5,16.9,1.5,17.4,1.9z"/>
</g>
</svg>
